<svg width="319" height="240" viewBox="0 0 319 240" fill="none" xmlns="http://www.w3.org/2000/svg">
<path d="M214.671 220.258C216.438 220.258 218.213 220.21 219.989 220.178C227.846 220.019 237.2 221.723 243.871 216.716C246.259 214.9 248.592 212.791 251.489 211.939C254.045 211.143 256.807 211.501 259.45 210.952C271.137 208.508 270.428 196.941 264.227 189.585C258.208 182.42 248.862 179.905 241.753 174.173C237.431 170.678 231.357 171.387 226.397 171.387C212.838 171.395 199.669 175.931 188.981 184.275C185.168 187.197 181.673 189.251 178.823 193.757C175.59 198.924 173.243 204.596 171.882 210.538C171.447 211.986 171.362 213.517 171.635 215.004C172.574 218.586 176.682 219.78 179.182 219.86C190.964 220.186 202.825 220.393 214.671 220.258Z" fill="#FFC300" fill-opacity="0.8"/>
<path d="M229.565 220.736C228.116 220.736 226.66 220.688 225.211 220.648C223.388 220.592 221.668 220.545 219.996 220.577C218.325 220.608 216.446 220.64 214.671 220.656C204.369 220.768 193.073 220.656 179.11 220.25C176.658 220.179 172.216 219.016 171.197 215.1C170.903 213.55 170.985 211.953 171.436 210.442C172.818 204.46 175.18 198.746 178.425 193.534C180.814 189.76 183.679 187.651 186.712 185.422C187.357 184.952 188.018 184.466 188.687 183.949C199.903 175.375 212.919 170.877 226.349 170.981C227.042 170.981 227.758 170.981 228.491 170.981C233.004 170.893 238.123 170.798 241.952 173.887C244.901 176.119 248.036 178.095 251.322 179.793C256.011 182.389 260.875 185.071 264.481 189.346C268.406 193.995 269.942 199.894 268.398 204.376C267.53 206.892 265.277 210.148 259.49 211.358C258.299 211.58 257.094 211.714 255.884 211.756C254.425 211.785 252.974 211.983 251.561 212.345C249.268 213.03 247.294 214.566 245.391 216.047C244.946 216.389 244.516 216.731 244.07 217.066C239.922 220.171 234.796 220.736 229.565 220.736ZM221.127 219.773C222.456 219.773 223.81 219.812 225.227 219.852C231.755 220.043 238.505 220.242 243.624 216.397C244.062 216.071 244.492 215.728 244.93 215.394C246.896 213.858 248.91 212.273 251.362 211.549C252.825 211.176 254.326 210.971 255.836 210.936C257.006 210.893 258.171 210.765 259.323 210.554C263.622 209.662 266.487 207.425 267.642 204.09C269.099 199.871 267.642 194.274 263.868 189.832C260.318 185.669 255.541 183.018 250.94 180.502C247.609 178.785 244.434 176.782 241.451 174.515C237.845 171.602 232.877 171.697 228.507 171.785C227.631 171.785 226.779 171.785 225.943 171.785C212.84 171.785 200.134 176.203 189.164 184.594C188.496 185.111 187.835 185.597 187.182 186.075C184.213 188.256 181.411 190.318 179.102 193.972C175.901 199.104 173.574 204.731 172.216 210.626C171.798 212.014 171.71 213.481 171.961 214.908C172.869 218.371 176.897 219.398 179.126 219.462C193.081 219.86 204.369 219.987 214.655 219.868C216.43 219.868 218.197 219.82 219.973 219.788L221.127 219.773Z" fill="#231F20"/>
<path d="M220.657 159.804C204.735 154.399 188.289 151.047 171.714 150.737C143.979 150.243 117.581 159.844 92.1063 171.801C82.2588 176.434 72.3715 181.521 63.8853 189.068C57.9705 194.33 49.5002 206.852 55.216 216.031C56.4348 217.882 58.1984 219.309 60.2632 220.115C71.5436 224.844 84.448 221.468 95.8957 219.757C129.235 214.773 163.69 227.431 196.48 215.991C199.036 215.1 202.132 212.974 201.495 209.965C200.986 207.521 198.176 206.422 197.73 203.954C197.213 201.089 200.118 199.114 202.506 198.27C218.667 192.618 236.873 193.255 250.94 182.444C252.166 181.652 253.099 180.481 253.599 179.109C254.538 175.773 251.362 172.931 248.584 171.546C239.549 167.008 230.219 163.085 220.657 159.804Z" fill="white"/>
<path d="M73.5418 222.909C68.9377 223 64.3624 222.163 60.0881 220.449C57.9394 219.621 56.1066 218.136 54.8499 216.206C52.2706 212.059 52.2467 206.765 54.7942 200.89C56.875 196.283 59.8705 192.147 63.5988 188.733C72.4353 180.876 82.848 175.67 91.9153 171.411C114.763 160.68 142.116 149.773 171.722 150.307C187.373 150.585 203.876 153.642 220.785 159.398C230.363 162.684 239.709 166.612 248.759 171.156C251.792 172.669 254.976 175.678 253.981 179.188C253.462 180.645 252.477 181.891 251.179 182.731C242.008 189.776 230.919 192.029 220.195 194.21C214.36 195.397 208.318 196.599 202.642 198.613C200.254 199.449 197.643 201.319 198.096 203.851C198.405 204.954 199.027 205.944 199.887 206.701C200.833 207.555 201.517 208.659 201.862 209.885C202.538 213.07 199.473 215.37 196.592 216.365C177.581 222.997 157.727 221.548 138.518 220.139C124.491 219.112 109.986 218.053 95.9355 220.139C94.1842 220.393 92.4009 220.696 90.5938 220.998C84.9417 221.938 79.186 222.909 73.5418 222.909ZM169.652 151.087C140.994 151.087 114.484 161.691 92.2576 172.127C83.2381 176.37 72.8891 181.537 64.1322 189.33C60.4866 192.661 57.5584 196.7 55.5266 201.2C53.823 205.117 52.4458 210.833 55.5266 215.776C56.6944 217.564 58.3966 218.937 60.3906 219.701C69.8401 223.681 80.2926 221.898 90.4585 220.194C92.2736 219.892 94.0568 219.589 95.8161 219.327C109.954 217.209 124.475 218.276 138.574 219.327C157.679 220.728 177.478 222.177 196.329 215.601C198.876 214.709 201.647 212.719 201.105 210.028C200.778 208.956 200.161 207.995 199.322 207.25C198.358 206.388 197.669 205.261 197.34 204.01C196.791 200.985 199.728 198.812 202.403 197.88C208.135 195.874 214.201 194.64 220.06 193.446C230.696 191.289 241.698 189.052 250.725 182.118C251.879 181.374 252.761 180.276 253.241 178.989C254.1 175.94 251.187 173.258 248.424 171.88C239.407 167.36 230.099 163.446 220.562 160.162C203.733 154.438 187.301 151.405 171.738 151.119L169.652 151.087Z" fill="#231F20"/>
<path d="M227.36 198.183C226.213 198.184 225.067 198.11 223.929 197.96C223.826 197.944 223.733 197.889 223.671 197.805C223.608 197.722 223.581 197.617 223.595 197.514C223.599 197.462 223.615 197.411 223.641 197.364C223.666 197.318 223.701 197.277 223.743 197.245C223.785 197.213 223.833 197.19 223.884 197.177C223.935 197.165 223.989 197.163 224.041 197.172C230.231 197.949 236.496 196.505 241.721 193.096C241.81 193.045 241.915 193.031 242.014 193.055C242.113 193.079 242.198 193.141 242.254 193.226C242.309 193.312 242.329 193.416 242.31 193.516C242.291 193.616 242.234 193.705 242.151 193.765C237.747 196.626 232.612 198.159 227.36 198.183V198.183Z" fill="white"/>
<path d="M249.809 195.006C249.745 195.007 249.681 194.991 249.624 194.96C249.567 194.93 249.519 194.885 249.483 194.831C249.453 194.788 249.432 194.739 249.421 194.688C249.409 194.636 249.409 194.583 249.418 194.531C249.428 194.479 249.448 194.43 249.477 194.386C249.506 194.342 249.543 194.304 249.587 194.274L254.475 190.962C254.564 190.904 254.672 190.884 254.776 190.904C254.88 190.925 254.972 190.986 255.032 191.074C255.089 191.162 255.11 191.269 255.089 191.371C255.068 191.474 255.008 191.565 254.92 191.623L250.032 194.935C249.968 194.982 249.89 195.007 249.809 195.006V195.006Z" fill="white"/>
<path d="M203.884 215.02C203.778 215.034 203.672 215.005 203.587 214.94C203.503 214.875 203.448 214.779 203.434 214.674C203.42 214.568 203.449 214.461 203.514 214.377C203.579 214.293 203.675 214.238 203.78 214.224C206.169 213.587 208.063 210.841 208.087 207.975C208.086 207.922 208.096 207.869 208.116 207.82C208.136 207.771 208.166 207.727 208.204 207.69C208.243 207.654 208.288 207.625 208.338 207.607C208.387 207.589 208.44 207.581 208.493 207.585C208.545 207.585 208.596 207.595 208.644 207.615C208.692 207.635 208.735 207.665 208.772 207.702C208.808 207.739 208.837 207.783 208.856 207.831C208.875 207.879 208.884 207.931 208.883 207.983C208.883 211.247 206.75 214.256 203.987 214.996L203.884 215.02Z" fill="white"/>
<path d="M126.553 205.491C155.773 205.491 179.46 202.041 179.46 197.785C179.46 193.529 155.773 190.079 126.553 190.079C97.3327 190.079 73.6453 193.529 73.6453 197.785C73.6453 202.041 97.3327 205.491 126.553 205.491Z" fill="#E6E7E8"/>
<path d="M145.619 18.8344C145.686 18.9851 145.736 19.1426 145.77 19.3041L146.813 24.0328L145.674 24.2796C144.536 24.5343 143.414 24.805 142.299 25.0756L141.28 20.2514C141.16 19.6973 141.249 19.1184 141.529 18.6257C141.809 18.133 142.262 17.7612 142.8 17.5816C143.337 17.402 143.923 17.4273 144.443 17.6526C144.963 17.878 145.382 18.2875 145.619 18.8025V18.8344Z" fill="white"/>
<path d="M142.299 25.5055C142.226 25.507 142.154 25.4877 142.092 25.4498C142.001 25.3909 141.936 25.3 141.909 25.195L140.906 20.3628C140.77 19.7146 140.876 19.0389 141.206 18.4644C141.536 17.8898 142.065 17.4566 142.693 17.2471C143.322 17.0377 144.005 17.0666 144.614 17.3285C145.222 17.5903 145.713 18.0668 145.993 18.6672C146.074 18.8429 146.135 19.0272 146.176 19.2165L147.211 23.9452C147.224 23.998 147.225 24.0528 147.216 24.1063C147.206 24.1598 147.186 24.2106 147.155 24.2556C147.128 24.3005 147.09 24.3388 147.046 24.3677C147.002 24.3966 146.953 24.4154 146.9 24.4228L145.858 24.6457H145.77C144.64 24.8925 143.509 25.1711 142.418 25.4418L142.299 25.5055ZM143.533 17.9029C143.383 17.9031 143.234 17.9191 143.087 17.9507C142.613 18.0768 142.205 18.3798 141.948 18.7973C141.69 19.2149 141.602 19.7153 141.702 20.1956L142.641 24.6139C143.621 24.3591 144.616 24.1124 145.627 23.8894H145.706L146.375 23.7382L145.42 19.3996C145.39 19.2682 145.348 19.1401 145.292 19.0174V19.0174C145.141 18.6795 144.893 18.3936 144.58 18.1955C144.268 17.9973 143.903 17.8955 143.533 17.9029V17.9029Z" fill="#231F20"/>
<path d="M79.0985 85.1158C81.4071 95.5285 116.618 96.5634 157.727 87.4244C198.837 78.2855 230.298 62.4355 227.981 52.0228C225.664 41.6101 186.784 15.1405 145.682 24.2795C104.581 33.4185 76.7819 74.7031 79.0985 85.1158Z" fill="#FFC300" fill-opacity="0.8"/>
<path d="M107.67 94.0558C106.364 94.0558 105.09 94.0558 103.849 94.0001C88.8027 93.5622 79.8707 90.4336 78.7084 85.2432C76.368 74.719 104.255 33.116 145.579 23.9452C187.445 14.5833 226.086 41.5703 228.371 51.9353C230.759 62.7301 199.776 78.4845 157.815 87.8145C139.561 91.8745 121.943 94.0558 107.67 94.0558ZM79.4886 85.0283C80.5474 89.8047 89.4316 92.7821 103.872 93.204C118.695 93.6339 137.793 91.4526 157.64 87.0344C198.478 77.9591 229.852 62.2923 227.591 52.1104C226.484 47.127 216.319 37.9402 201.209 31.1815C190.701 26.4767 169.525 19.3836 145.754 24.6616C104.844 33.7608 77.2198 74.6952 79.4886 85.0283Z" fill="#231F20"/>
<path d="M227.981 52.0228C230.242 62.1888 200.317 77.5371 160.633 86.7637C159.678 86.9946 158.706 87.2095 157.735 87.4324L155.673 87.8782C115.448 96.5236 81.3674 95.3534 79.0906 85.1158C76.8138 74.8782 107.367 59.291 147.633 50.0884L149.345 49.7062L152.33 49.0535C192.158 40.6389 225.72 41.8649 227.981 52.0228Z" fill="#231F20"/>
<path d="M107.701 94.0638C91.0794 94.0638 80.0059 91.0546 78.7083 85.2034C76.3201 74.6474 106.571 59.0602 147.545 49.7222L149.257 49.3321L152.25 48.6873C192.627 40.1295 226.062 41.5226 228.363 51.9353C230.664 62.348 200.962 77.7999 160.696 87.1538C159.741 87.3847 158.77 87.5996 157.799 87.8146C157.114 87.9738 156.421 88.1171 155.737 88.2683C137.65 92.1373 120.924 94.0638 107.701 94.0638ZM199.45 43.9108C186.426 43.9108 169.995 45.7259 152.417 49.4834L149.432 50.1362C148.851 50.2556 148.286 50.3909 147.728 50.5183C107.924 59.6095 77.2754 75.1012 79.4805 85.0522C81.6857 95.0032 115.829 96.0619 155.594 87.5121L157.647 87.0663C158.619 86.8487 159.582 86.6258 160.537 86.3975C199.688 77.2984 229.796 61.9261 227.591 52.1662C226.389 46.7051 215.538 43.9268 199.45 43.9268V43.9108Z" fill="#231F20"/>
<path d="M209.552 43.9267C201.026 43.1307 190.032 43.4332 177.629 44.882C170.156 34.7935 159.57 27.4445 147.505 23.9691C177.589 18.898 201.01 36.3322 209.552 43.9267Z" fill="white"/>
<path d="M177.629 45.2801C177.566 45.2807 177.504 45.2667 177.447 45.239C177.39 45.2114 177.341 45.1709 177.303 45.1209C169.894 35.1066 159.395 27.8103 147.426 24.3592C147.336 24.3389 147.256 24.2882 147.199 24.2157C147.143 24.1431 147.113 24.0531 147.115 23.9611C147.116 23.8692 147.149 23.7804 147.209 23.7105C147.269 23.6406 147.351 23.594 147.442 23.579C177.637 18.4841 201.121 35.9023 209.814 43.6243C209.876 43.6802 209.919 43.7537 209.938 43.8348C209.956 43.916 209.949 44.0009 209.918 44.078C209.885 44.1559 209.827 44.221 209.754 44.2639C209.681 44.3069 209.596 44.3254 209.512 44.3168C200.938 43.5208 189.928 43.8392 177.669 45.2801H177.629ZM149.352 24.0885C160.71 27.7861 170.65 34.9007 177.812 44.4601C189.467 43.1068 199.983 42.7804 208.374 43.4173C199.306 35.6157 177.366 20.1479 149.352 24.0885Z" fill="#231F20"/>
<path d="M140.468 25.6249C140.468 25.6249 128.28 35.7828 123.663 56.6719C111.562 60.5886 101.198 64.9512 93.5154 69.3137C95.7783 62.8832 98.9989 56.8312 103.068 51.3621C111.117 40.6628 124.73 29.4779 140.468 25.6249Z" fill="white"/>
<path d="M93.5154 69.6958C93.4231 69.6959 93.3334 69.665 93.2607 69.6083C93.1985 69.5561 93.1538 69.4863 93.1324 69.408C93.1111 69.3298 93.1142 69.2469 93.1412 69.1704C95.3881 62.6985 98.6095 56.6073 102.694 51.1074C112.367 38.3144 126.441 28.6421 140.357 25.2348C140.443 25.2159 140.534 25.2265 140.614 25.265C140.694 25.3035 140.759 25.3677 140.799 25.4473C140.838 25.527 140.85 25.6175 140.831 25.7045C140.813 25.7915 140.767 25.87 140.699 25.9274C140.58 26.0309 128.559 36.2765 124.029 56.7436C124.013 56.8104 123.98 56.8722 123.934 56.9235C123.888 56.9749 123.831 57.0142 123.766 57.0382C111.825 60.8992 101.42 65.2617 93.6826 69.6481C93.631 69.6761 93.574 69.6924 93.5154 69.6958ZM139.043 26.4051C125.78 30.083 112.566 39.405 103.347 51.585C99.5199 56.7334 96.4553 62.4068 94.2478 68.4301C101.898 64.2268 111.897 60.0553 123.329 56.3137C125.158 47.9723 128.604 40.0698 133.471 33.0523C135.13 30.6779 136.995 28.4537 139.043 26.4051V26.4051Z" fill="#231F20"/>
<path d="M174.93 177.883L176.323 177.509C177.617 177.138 178.959 176.967 180.304 176.999H180.559L160.657 86.7399L152.33 49.0774C151.335 49.2764 150.347 49.4993 149.344 49.7143L147.633 50.1123L155.681 87.8783L174.859 177.907L174.93 177.883Z" fill="white"/>
<path d="M174.859 178.305C174.788 178.306 174.719 178.287 174.66 178.249C174.612 178.222 174.571 178.185 174.538 178.141C174.505 178.097 174.482 178.047 174.469 177.994L147.275 50.1919C147.263 50.1417 147.261 50.0897 147.27 50.0388C147.278 49.9879 147.297 49.9393 147.324 49.8956C147.351 49.8519 147.387 49.8141 147.429 49.7843C147.471 49.7546 147.519 49.7335 147.569 49.7222L147.856 49.6585L149.297 49.3242L150.395 49.0853L152.282 48.6873C152.384 48.6659 152.491 48.6857 152.579 48.7423C152.667 48.7989 152.729 48.8878 152.752 48.9898L180.941 176.943C180.956 177.005 180.956 177.068 180.941 177.13C180.926 177.191 180.896 177.247 180.853 177.294C180.81 177.34 180.756 177.375 180.697 177.397C180.638 177.419 180.574 177.427 180.511 177.421H180.28C178.986 177.391 177.694 177.56 176.451 177.923L175.289 178.225L175.09 178.281H175.01L174.859 178.305ZM148.071 50.4068L175.137 177.405L176.204 177.127C177.438 176.782 178.712 176.601 179.994 176.585L152.051 49.5471L150.563 49.8655L149.456 50.1043L148.071 50.4068Z" fill="#231F20"/>
<path d="M175.615 198.255C175.381 198.254 175.149 198.202 174.937 198.101C174.725 198.001 174.538 197.855 174.389 197.673L110.424 120C110.158 119.674 110.032 119.255 110.074 118.836C110.116 118.417 110.322 118.032 110.648 117.764C110.973 117.497 111.391 117.369 111.81 117.409C112.229 117.449 112.615 117.654 112.884 117.978L176.849 195.627C177.041 195.861 177.162 196.144 177.199 196.444C177.236 196.743 177.187 197.048 177.058 197.32C176.928 197.593 176.724 197.824 176.469 197.985C176.213 198.146 175.917 198.231 175.615 198.231V198.255Z" fill="#231F20"/>
<path d="M110.735 196.32C110.407 196.321 110.088 196.221 109.819 196.033C109.648 195.913 109.503 195.76 109.391 195.583C109.279 195.406 109.203 195.208 109.168 195.002C109.132 194.796 109.138 194.585 109.184 194.38C109.23 194.176 109.316 193.983 109.437 193.812L137.849 153.34C137.969 153.168 138.122 153.022 138.299 152.91C138.476 152.797 138.673 152.721 138.879 152.685C139.085 152.649 139.296 152.653 139.501 152.699C139.705 152.744 139.899 152.829 140.07 152.95C140.242 153.07 140.388 153.223 140.5 153.399C140.613 153.576 140.689 153.773 140.725 153.979C140.761 154.186 140.757 154.397 140.711 154.601C140.666 154.806 140.581 154.999 140.46 155.171L112.04 195.627C111.895 195.84 111.7 196.014 111.473 196.134C111.245 196.255 110.992 196.319 110.735 196.32V196.32Z" fill="#231F20"/>
<path d="M114.174 112.636H73.9637C73.9637 112.636 73.7965 142.051 87.5687 157.838C101.341 173.624 119.348 173.632 124.507 173.807C129.665 173.982 147.529 173.807 147.529 173.807C142.248 172.387 137.346 169.817 133.173 166.281C129 162.746 125.661 158.332 123.392 153.356C115.376 136.176 114.174 112.636 114.174 112.636Z" fill="#FFC300" fill-opacity="0.8"/>
<path d="M132.73 174.277C129.315 174.277 126.179 174.277 124.467 174.205H123.91C118.154 174.038 100.64 173.52 87.2423 158.124C73.5577 142.402 73.5657 112.955 73.5657 112.66C73.5677 112.555 73.6103 112.455 73.6845 112.381C73.7587 112.307 73.8588 112.264 73.9637 112.262H114.174C114.275 112.262 114.373 112.301 114.447 112.37C114.521 112.44 114.566 112.535 114.572 112.636C114.572 112.875 115.861 136.304 123.774 153.236C126.03 158.139 129.33 162.489 133.443 165.983C137.556 169.477 142.382 172.031 147.585 173.465C147.681 173.484 147.766 173.537 147.824 173.615C147.883 173.693 147.911 173.789 147.903 173.887C147.894 173.985 147.849 174.076 147.777 174.143C147.706 174.21 147.612 174.249 147.513 174.253C147.394 174.205 139.505 174.277 132.73 174.277ZM74.3697 113.034C74.4175 116.585 75.2136 143.07 87.8394 157.615C101.006 172.74 118.265 173.25 123.934 173.417H124.499C128.384 173.544 139.688 173.473 144.862 173.417C140.09 171.711 135.704 169.073 131.961 165.657C128.217 162.24 125.191 158.113 123.058 153.515C115.63 137.649 113.998 116.099 113.799 113.026L74.3697 113.034Z" fill="#231F20"/>
<path d="M116.315 173.194C116.315 173.194 129.124 171.045 133.59 161.428H174.023C174.023 161.428 167.153 170.479 163.714 172.43C160.275 174.38 147.506 173.807 147.506 173.807C147.506 173.807 121.171 173.194 116.315 173.194Z" fill="#FFC300" fill-opacity="0.8"/>
<path d="M151.669 174.285C149.392 174.285 147.689 174.213 147.49 174.197C147.291 174.181 121.108 173.592 116.315 173.592C116.215 173.592 116.118 173.555 116.044 173.487C115.971 173.419 115.925 173.326 115.917 173.226C115.908 173.126 115.938 173.026 116 172.948C116.062 172.869 116.152 172.818 116.252 172.804C116.371 172.804 128.901 170.567 133.232 161.261C133.262 161.191 133.312 161.132 133.376 161.091C133.44 161.05 133.514 161.028 133.59 161.03H174.023C174.098 161.03 174.171 161.051 174.234 161.09C174.297 161.129 174.348 161.186 174.381 161.253C174.414 161.318 174.428 161.392 174.421 161.465C174.414 161.539 174.386 161.608 174.341 161.667C174.063 162.041 167.376 170.814 163.913 172.772C161.668 174.046 155.753 174.285 151.669 174.285ZM119.356 172.828C127.779 172.947 147.291 173.401 147.514 173.409C147.736 173.417 160.251 173.95 163.523 172.079C166.317 170.487 171.587 163.912 173.211 161.826H133.845C130.629 168.465 123.44 171.562 119.356 172.828V172.828Z" fill="#231F20"/>
<path d="M137.602 201.837C137.368 201.837 137.137 201.786 136.925 201.687C136.713 201.588 136.526 201.443 136.376 201.264L72.4431 123.622C72.2265 123.296 72.1379 122.901 72.1943 122.513C72.2507 122.125 72.448 121.772 72.7487 121.521C73.0493 121.269 73.432 121.138 73.8236 121.151C74.2152 121.164 74.5882 121.321 74.8712 121.592L138.836 199.234C138.97 199.395 139.07 199.581 139.132 199.781C139.193 199.982 139.215 200.192 139.195 200.401C139.175 200.609 139.114 200.812 139.015 200.997C138.917 201.182 138.783 201.346 138.621 201.479C138.332 201.71 137.973 201.836 137.602 201.837V201.837Z" fill="#231F20"/>
<path d="M72.7219 199.91C72.3929 199.907 72.073 199.801 71.8065 199.608C71.4632 199.364 71.2303 198.995 71.1587 198.58C71.0871 198.165 71.1826 197.739 71.4243 197.395L99.8364 156.922C100.078 156.576 100.448 156.34 100.863 156.266C101.279 156.192 101.707 156.286 102.053 156.528C102.4 156.77 102.636 157.139 102.71 157.555C102.784 157.971 102.689 158.399 102.448 158.745L74.0355 199.234C73.8875 199.444 73.6907 199.616 73.462 199.734C73.2332 199.851 72.9793 199.912 72.7219 199.91Z" fill="#231F20"/>
<path d="M229.844 160.672C229.837 165.3 227.995 169.736 224.72 173.006C221.445 176.277 217.006 178.114 212.378 178.114C211.153 178.112 209.931 177.984 208.732 177.732C208.31 177.636 207.896 177.533 207.482 177.413C204.949 176.671 202.617 175.366 200.66 173.596C198.702 171.826 197.17 169.637 196.178 167.192C195.794 166.246 195.495 165.269 195.286 164.27C194.72 161.617 194.779 158.869 195.461 156.243C196.142 153.618 197.426 151.187 199.211 149.144C199.402 148.922 199.601 148.707 199.8 148.508C202.467 145.725 205.985 143.91 209.799 143.349C210.426 143.25 211.059 143.192 211.693 143.174C211.924 143.174 212.147 143.174 212.378 143.174C215.306 143.173 218.186 143.908 220.756 145.312C223.325 146.715 225.5 148.742 227.081 151.206C227.32 151.588 227.551 152.002 227.766 152.376C229.141 154.924 229.856 157.776 229.844 160.672V160.672Z" fill="white"/>
<path d="M212.378 178.544C211.126 178.542 209.877 178.412 208.652 178.154C208.214 178.058 207.792 177.955 207.371 177.827C204.788 177.059 202.412 175.721 200.415 173.912C198.419 172.103 196.854 169.869 195.835 167.375C195.44 166.407 195.133 165.405 194.92 164.381C194.663 163.161 194.532 161.918 194.53 160.672C194.533 156.355 196.096 152.184 198.932 148.929C199.131 148.699 199.33 148.484 199.537 148.277C202.274 145.441 205.869 143.586 209.767 142.999C210.41 142.903 211.059 142.845 211.709 142.824H212.402C215.393 142.824 218.337 143.578 220.961 145.015C223.584 146.452 225.804 148.526 227.416 151.047C227.663 151.437 227.901 151.843 228.116 152.241C230.019 155.785 230.67 159.868 229.963 163.828C229.257 167.788 227.234 171.394 224.223 174.062C223.497 174.719 222.714 175.31 221.883 175.829C219.034 177.612 215.739 178.553 212.378 178.544ZM212.378 143.604H211.709C211.091 143.623 210.474 143.679 209.862 143.771C206.139 144.332 202.704 146.103 200.086 148.81C199.89 149.017 199.699 149.224 199.513 149.431C197.627 151.59 196.315 154.19 195.698 156.99C195.082 159.791 195.181 162.701 195.986 165.453C196.791 168.205 198.277 170.71 200.305 172.736C202.334 174.762 204.841 176.245 207.593 177.047C207.999 177.166 208.389 177.27 208.811 177.357C209.984 177.606 211.179 177.731 212.378 177.732C215.321 177.725 218.213 176.957 220.773 175.503C223.332 174.049 225.472 171.959 226.986 169.434C228.499 166.909 229.334 164.036 229.409 161.093C229.484 158.15 228.798 155.238 227.416 152.639C227.209 152.241 226.978 151.843 226.747 151.485C225.208 149.069 223.085 147.08 220.573 145.702C218.061 144.324 215.243 143.603 212.378 143.604V143.604Z" fill="#231F20"/>
<path d="M210.244 153.945C210.141 154.032 209.154 154.876 207.705 156.15C203.682 159.643 199.838 163.336 196.186 167.215C195.802 166.27 195.503 165.292 195.294 164.294C194.728 161.641 194.787 158.893 195.469 156.267C196.15 153.642 197.434 151.211 199.219 149.168C199.41 148.945 199.609 148.73 199.808 148.531C202.878 149.197 205.78 150.483 208.334 152.313C209.007 152.813 209.645 153.359 210.244 153.945V153.945Z" fill="#FFC300" fill-opacity="0.8"/>
<path d="M196.178 167.621H196.114C196.047 167.611 195.984 167.584 195.931 167.542C195.878 167.5 195.837 167.445 195.811 167.383C195.416 166.415 195.109 165.413 194.896 164.389C194.639 163.169 194.508 161.926 194.506 160.68C194.509 156.363 196.073 152.192 198.908 148.937C199.107 148.715 199.306 148.492 199.513 148.285C199.56 148.235 199.62 148.198 199.685 148.179C199.751 148.159 199.821 148.157 199.887 148.173C203.011 148.856 205.963 150.167 208.565 152.026C209.25 152.529 209.904 153.074 210.523 153.658C210.592 153.724 210.634 153.813 210.643 153.908C210.652 154.003 210.626 154.098 210.571 154.176C210.545 154.22 210.509 154.258 210.467 154.287C210.276 154.446 209.329 155.258 207.96 156.468C203.947 159.95 200.113 163.633 196.472 167.502C196.434 167.541 196.388 167.571 196.337 167.592C196.286 167.612 196.232 167.622 196.178 167.621V167.621ZM199.927 148.993L199.513 149.447C197.77 151.443 196.516 153.817 195.85 156.381C195.184 158.946 195.124 161.631 195.676 164.222C195.833 164.989 196.048 165.742 196.321 166.475C199.672 162.821 204.68 158.299 207.466 155.863C208.477 154.972 209.257 154.271 209.679 153.929C209.172 153.478 208.64 153.056 208.087 152.663C205.639 150.908 202.865 149.66 199.927 148.993V148.993Z" fill="#231F20"/>
<path d="M227.766 152.408C225.704 152.209 224.025 155.593 222.13 155.688C219.726 155.695 217.327 155.924 214.965 156.373C213.286 156.707 210.356 155.728 210.356 155.728L210.181 151.644L209.831 143.397C210.458 143.298 211.091 143.239 211.725 143.222C211.956 143.222 212.179 143.222 212.41 143.222C215.338 143.221 218.218 143.956 220.788 145.36C223.357 146.763 225.532 148.79 227.113 151.254C227.32 151.62 227.551 152.01 227.766 152.408Z" fill="#FFC300" fill-opacity="0.8"/>
<path d="M214.145 156.842C212.809 156.778 211.488 156.529 210.22 156.102C210.145 156.077 210.078 156.029 210.03 155.965C209.982 155.901 209.954 155.824 209.95 155.744L209.369 143.413C209.365 143.315 209.397 143.219 209.459 143.143C209.52 143.067 209.607 143.016 209.703 142.999C210.349 142.904 211 142.845 211.653 142.824H212.346C215.347 142.815 218.302 143.564 220.936 145.001C223.571 146.439 225.799 148.519 227.416 151.047C227.663 151.437 227.901 151.843 228.116 152.241C228.153 152.304 228.173 152.375 228.173 152.448C228.173 152.521 228.153 152.592 228.116 152.655C228.073 152.712 228.016 152.758 227.951 152.789C227.886 152.819 227.814 152.833 227.742 152.83C226.843 152.735 225.911 153.587 225.012 154.422C224.112 155.258 223.197 156.086 222.162 156.126C219.758 156.131 217.359 156.358 214.997 156.803C214.715 156.843 214.43 156.856 214.145 156.842V156.842ZM210.738 155.425C211.47 155.656 213.596 156.222 214.878 155.983C217.274 155.53 219.707 155.298 222.146 155.29C222.886 155.29 223.666 154.55 224.486 153.794C225.209 152.998 226.121 152.398 227.137 152.05L226.771 151.445C225.163 148.944 222.93 146.906 220.292 145.533C217.655 144.161 214.704 143.501 211.733 143.62C211.231 143.62 210.73 143.675 210.236 143.739L210.738 155.425Z" fill="#231F20"/>
<path d="M229.844 160.672C229.837 163.627 229.083 166.533 227.654 169.12C226.225 171.707 224.166 173.891 221.668 175.471L211.582 157.288L210.109 154.629L210.905 154.47C211.431 154.359 222.09 151.071 227.105 151.286C227.344 151.668 227.575 152.082 227.79 152.456C229.144 154.982 229.85 157.805 229.844 160.672V160.672Z" fill="white"/>
<path d="M221.668 175.869H221.573C221.519 175.857 221.469 175.833 221.425 175.8C221.381 175.768 221.344 175.726 221.318 175.678L209.759 154.836C209.726 154.775 209.71 154.707 209.711 154.637C209.712 154.568 209.732 154.5 209.767 154.44C209.802 154.38 209.852 154.33 209.912 154.295C209.972 154.26 210.04 154.241 210.109 154.239H210.149L210.802 154.104C210.865 154.104 211.104 154.024 211.486 153.913C218.922 151.795 224.176 150.776 227.097 150.872C227.162 150.873 227.224 150.891 227.28 150.923C227.336 150.955 227.382 151 227.416 151.055C227.663 151.445 227.901 151.851 228.116 152.249C230.019 155.793 230.67 159.876 229.963 163.836C229.257 167.796 227.234 171.402 224.223 174.07C223.497 174.727 222.714 175.318 221.883 175.837C221.816 175.867 221.741 175.878 221.668 175.869ZM210.714 154.9L221.811 174.929C222.473 174.487 223.103 174.001 223.698 173.473C226.571 170.925 228.501 167.482 229.175 163.702C229.85 159.921 229.23 156.024 227.416 152.639C227.241 152.305 227.05 151.986 226.859 151.668C223.961 151.668 218.898 152.639 211.733 154.685L210.993 154.892L210.714 154.9Z" fill="#231F20"/>
<path d="M210.244 153.945C210.244 154 210.189 154.231 210.109 154.613C209.99 155.226 209.799 156.206 209.584 157.519C208.788 162.471 207.594 171.49 208.732 177.748C208.31 177.652 207.896 177.548 207.482 177.429C204.949 176.687 202.617 175.382 200.66 173.612C198.702 171.842 197.17 169.653 196.178 167.207C195.794 166.262 195.495 165.284 195.286 164.286C196.578 162.11 198.378 160.28 200.532 158.952C202.706 157.521 204.968 156.232 207.307 155.091C208.246 154.613 209.23 154.229 210.244 153.945V153.945Z" fill="white"/>
<path d="M208.732 178.161H208.644C208.214 178.066 207.793 177.962 207.371 177.835C204.788 177.066 202.41 175.727 200.414 173.916C198.417 172.106 196.853 169.87 195.835 167.375C195.44 166.407 195.133 165.405 194.92 164.381C194.897 164.287 194.912 164.187 194.96 164.103C196.293 161.878 198.138 160.003 200.341 158.634C202.526 157.192 204.802 155.894 207.156 154.749C208.129 154.254 209.147 153.854 210.197 153.555C210.254 153.543 210.314 153.544 210.37 153.56C210.427 153.575 210.479 153.603 210.523 153.642C210.568 153.679 210.604 153.725 210.629 153.777C210.654 153.83 210.666 153.887 210.666 153.945C210.666 154.064 210.603 154.303 210.523 154.693C210.523 154.693 210.523 154.693 210.523 154.741C210.404 155.362 210.213 156.333 210.006 157.591C209.21 162.431 208.031 171.474 209.154 177.684C209.165 177.748 209.161 177.814 209.142 177.877C209.123 177.939 209.088 177.996 209.042 178.042C209.002 178.082 208.953 178.114 208.9 178.134C208.846 178.155 208.789 178.164 208.732 178.161V178.161ZM195.708 164.365C195.898 165.288 196.164 166.194 196.504 167.072C197.478 169.46 198.978 171.597 200.89 173.327C202.803 175.056 205.08 176.333 207.554 177.063L208.199 177.238C207.227 170.949 208.366 162.208 209.154 157.463C209.369 156.182 209.56 155.171 209.679 154.55C208.915 154.822 208.165 155.136 207.434 155.489C205.113 156.625 202.867 157.907 200.707 159.326C198.676 160.599 196.965 162.324 195.708 164.365V164.365Z" fill="#231F20"/>
<path d="M223.961 173.743C220.769 176.576 216.645 178.132 212.378 178.114C211.153 178.112 209.931 177.984 208.732 177.732C208.31 177.636 207.896 177.533 207.482 177.413C207.099 173.852 207.027 170.264 207.267 166.69C207.528 163.51 208.123 160.367 209.042 157.312C209.378 156.161 209.777 155.029 210.236 153.921V153.921C210.236 153.921 210.467 154.096 210.873 154.438C211.279 154.781 211.988 155.394 212.784 156.134C215.62 158.703 218.09 161.649 220.124 164.891C221.765 167.671 223.054 170.645 223.961 173.743V173.743Z" fill="#FFC300" fill-opacity="0.8"/>
<path d="M212.378 178.544C211.126 178.542 209.877 178.412 208.652 178.154C208.214 178.058 207.792 177.954 207.371 177.827C207.293 177.806 207.225 177.762 207.173 177.701C207.122 177.64 207.091 177.564 207.084 177.485C206.704 173.899 206.632 170.288 206.869 166.69C207.133 163.483 207.733 160.314 208.66 157.233C209.17 155.537 209.631 154.375 209.854 153.825C209.881 153.768 209.916 153.714 209.958 153.666C210.032 153.603 210.127 153.569 210.225 153.569C210.322 153.569 210.417 153.603 210.491 153.666L211.136 154.2C211.446 154.462 212.123 155.035 213.063 155.911C215.943 158.492 218.451 161.46 220.514 164.732C222.166 167.527 223.465 170.517 224.383 173.632C224.403 173.703 224.403 173.779 224.384 173.85C224.364 173.922 224.325 173.987 224.271 174.038C223.541 174.693 222.755 175.285 221.923 175.805C219.065 177.604 215.755 178.553 212.378 178.544V178.544ZM207.856 177.135L208.811 177.373C209.984 177.622 211.179 177.747 212.378 177.748C215.592 177.749 218.741 176.841 221.461 175.128C222.181 174.677 222.865 174.172 223.507 173.616C222.61 170.649 221.362 167.8 219.789 165.13C217.775 161.918 215.329 158.999 212.521 156.452C211.598 155.593 210.929 155.027 210.627 154.773L210.412 154.59C210.157 155.226 209.807 156.182 209.424 157.463C208.511 160.489 207.921 163.603 207.665 166.754C207.435 170.213 207.499 173.686 207.856 177.135V177.135Z" fill="#231F20"/>
<path d="M211.693 143.222C211.5 146.054 211.154 148.873 210.658 151.668C210.427 153.037 210.244 153.945 210.244 153.945C209.551 153.444 208.831 152.982 208.087 152.56C205.313 151.001 202.321 149.866 199.211 149.192C199.402 148.969 199.601 148.754 199.8 148.555C202.467 145.773 205.985 143.958 209.799 143.397C210.426 143.298 211.059 143.239 211.693 143.222Z" fill="white"/>
<path d="M210.244 154.343C210.161 154.34 210.081 154.312 210.013 154.263C209.334 153.773 208.627 153.321 207.896 152.91C205.159 151.368 202.208 150.244 199.139 149.574C199.072 149.56 199.01 149.528 198.96 149.482C198.909 149.436 198.872 149.377 198.852 149.312C198.83 149.247 198.825 149.178 198.837 149.111C198.85 149.044 198.88 148.981 198.924 148.929C199.123 148.707 199.322 148.484 199.529 148.277C202.266 145.441 205.861 143.586 209.759 142.999C210.402 142.903 211.051 142.845 211.701 142.824C211.81 142.82 211.916 142.86 211.996 142.935C212.035 142.975 212.065 143.022 212.084 143.074C212.103 143.126 212.111 143.182 212.107 143.237C211.911 146.088 211.563 148.926 211.064 151.74C210.833 153.109 210.65 154.016 210.65 154.016C210.64 154.082 210.612 154.144 210.57 154.195C210.528 154.247 210.473 154.287 210.411 154.311C210.358 154.332 210.302 154.343 210.244 154.343ZM199.959 148.953C202.874 149.645 205.677 150.744 208.286 152.217C208.867 152.544 209.424 152.894 209.974 153.26C210.045 152.87 210.149 152.297 210.26 151.604C210.642 149.343 211.12 146.183 211.271 143.643C210.794 143.643 210.324 143.723 209.862 143.795C206.139 144.356 202.704 146.127 200.086 148.834L199.959 148.953Z" fill="#231F20"/>
<path d="M210.244 157.607C211.893 157.607 213.23 156.27 213.23 154.621C213.23 152.973 211.893 151.636 210.244 151.636C208.596 151.636 207.259 152.973 207.259 154.621C207.259 156.27 208.596 157.607 210.244 157.607Z" fill="white"/>
<path d="M210.244 158.005C209.575 158.005 208.921 157.806 208.365 157.435C207.808 157.063 207.375 156.534 207.119 155.916C206.863 155.298 206.796 154.618 206.926 153.961C207.057 153.305 207.379 152.702 207.852 152.229C208.325 151.756 208.928 151.434 209.584 151.303C210.241 151.173 210.921 151.24 211.539 151.496C212.157 151.752 212.686 152.185 213.058 152.742C213.429 153.298 213.628 153.952 213.628 154.621C213.626 155.518 213.268 156.377 212.634 157.011C212 157.646 211.141 158.003 210.244 158.005V158.005ZM210.244 152.042C209.732 152.042 209.232 152.194 208.806 152.479C208.381 152.763 208.049 153.168 207.853 153.641C207.658 154.114 207.607 154.635 207.707 155.137C207.808 155.639 208.055 156.1 208.418 156.462C208.78 156.823 209.242 157.069 209.745 157.168C210.247 157.267 210.767 157.214 211.24 157.017C211.713 156.82 212.116 156.488 212.399 156.061C212.683 155.634 212.833 155.133 212.832 154.621C212.83 153.937 212.556 153.281 212.071 152.797C211.586 152.314 210.929 152.042 210.244 152.042V152.042Z" fill="#231F20"/>
<path d="M172.558 179.236C173.204 178.605 173.96 178.095 174.787 177.732C175.949 177.286 179.341 175.662 182.589 177.732" fill="white"/>
<path d="M172.558 179.634C172.48 179.633 172.404 179.609 172.34 179.565C172.275 179.522 172.225 179.46 172.196 179.388C172.166 179.316 172.158 179.237 172.173 179.16C172.188 179.084 172.225 179.013 172.279 178.958C172.97 178.283 173.78 177.743 174.668 177.365L174.962 177.246C176.371 176.689 179.651 175.375 182.827 177.397C182.917 177.453 182.981 177.542 183.005 177.645C183.029 177.748 183.011 177.857 182.955 177.947C182.899 178.036 182.809 178.1 182.706 178.124C182.603 178.148 182.495 178.13 182.405 178.074C179.571 176.267 176.658 177.429 175.241 177.986L174.938 178.106C174.165 178.451 173.459 178.931 172.853 179.523C172.813 179.56 172.767 179.589 172.716 179.608C172.666 179.627 172.612 179.636 172.558 179.634V179.634Z" fill="#231F20"/>
<path d="M177.924 212.751C177.406 212.751 176.889 212.751 176.371 212.711C176.266 212.711 176.164 212.669 176.09 212.595C176.015 212.52 175.973 212.419 175.973 212.313C175.973 212.208 176.015 212.106 176.09 212.032C176.164 211.957 176.266 211.915 176.371 211.915C181.236 212.157 186.088 211.226 190.518 209.201C190.614 209.158 190.723 209.154 190.821 209.192C190.92 209.229 190.999 209.304 191.043 209.4C191.066 209.447 191.079 209.498 191.081 209.55C191.084 209.602 191.076 209.654 191.058 209.703C191.04 209.752 191.013 209.797 190.978 209.835C190.942 209.873 190.899 209.904 190.852 209.925C186.793 211.777 182.385 212.741 177.924 212.751V212.751Z" fill="#231F20"/>
<path d="M208.127 179.706C212.681 177.787 217.489 175.829 222.401 176.354C224.829 176.711 227.197 177.399 229.438 178.4" fill="white"/>
<path d="M208.127 180.088C208.048 180.087 207.972 180.063 207.907 180.019C207.842 179.975 207.791 179.913 207.761 179.841C207.74 179.793 207.729 179.74 207.728 179.688C207.728 179.635 207.738 179.582 207.758 179.533C207.778 179.485 207.807 179.44 207.845 179.403C207.882 179.365 207.927 179.336 207.976 179.316C212.346 177.477 217.298 175.399 222.44 175.948C224.912 176.305 227.323 177.002 229.605 178.018C229.703 178.058 229.781 178.136 229.822 178.234C229.863 178.331 229.864 178.441 229.824 178.54C229.784 178.638 229.706 178.716 229.609 178.757C229.511 178.798 229.401 178.799 229.302 178.759C227.095 177.768 224.762 177.088 222.369 176.736C217.441 176.203 212.585 178.249 208.294 180.056C208.241 180.077 208.184 180.088 208.127 180.088V180.088Z" fill="#231F20"/>
<path d="M233.394 214.534H232.861C232.809 214.532 232.757 214.52 232.71 214.498C232.662 214.476 232.62 214.445 232.584 214.407C232.549 214.368 232.521 214.323 232.503 214.274C232.485 214.225 232.477 214.173 232.479 214.12C232.487 214.016 232.534 213.919 232.611 213.848C232.688 213.777 232.788 213.738 232.893 213.738C236.023 213.842 239.1 212.913 241.65 211.095C242.446 210.546 243.146 209.909 243.855 209.288C245.256 207.903 246.913 206.805 248.735 206.056C249.857 205.728 251.014 205.536 252.182 205.483C253.042 205.437 253.898 205.336 254.745 205.18C256.4 204.785 257.917 203.951 259.138 202.766C260.358 201.58 261.236 200.088 261.679 198.446C261.692 198.393 261.715 198.344 261.747 198.301C261.779 198.258 261.82 198.221 261.866 198.193C261.912 198.166 261.963 198.147 262.017 198.139C262.07 198.131 262.124 198.134 262.177 198.147C262.229 198.16 262.278 198.183 262.321 198.215C262.365 198.247 262.401 198.288 262.429 198.334C262.457 198.38 262.475 198.431 262.483 198.485C262.491 198.538 262.488 198.592 262.475 198.645C261.992 200.428 261.038 202.048 259.713 203.335C258.388 204.622 256.74 205.529 254.944 205.961C254.082 206.133 253.21 206.248 252.333 206.303C251.231 206.358 250.138 206.54 249.077 206.844C247.329 207.531 245.737 208.563 244.396 209.877C243.672 210.534 242.915 211.153 242.127 211.732C239.576 213.547 236.525 214.527 233.394 214.534V214.534Z" fill="white"/>
</svg>
