<svg width="319" height="240" viewBox="0 0 319 240" fill="none" xmlns="http://www.w3.org/2000/svg">
<path d="M237.597 127.467C237.016 91.6437 201.551 62.8336 157.91 62.8336C136.193 62.8336 116.514 69.9983 102.145 81.5574C87.3695 93.4428 78.1987 110.033 78.1987 128.391C78.1987 164.596 113.887 193.94 157.91 193.94C201.933 193.94 237.621 164.58 237.621 128.391C237.621 128.088 237.621 127.778 237.597 127.467ZM207.442 118.973C207.442 136.296 185.263 150.354 157.91 150.354C130.557 150.354 108.378 136.296 108.378 118.973C108.378 101.65 130.557 87.6076 157.91 87.6076C185.263 87.6076 207.442 101.69 207.442 118.973Z" fill="#FFC300" stroke="#231F20" stroke-width="1.015" stroke-linecap="round" stroke-linejoin="round"/>
<path d="M188.981 59.9598C179.197 55.1117 139.807 57.7308 139.807 57.7308L139.879 58.0094C132.993 52.6916 120.264 57.4283 114.038 62.1251C106.746 67.626 101.834 75.8495 98.3157 84.1446C97.5196 85.9677 96.827 87.9181 97.0579 89.8923C97.2887 91.8666 98.3873 93.4826 99.5337 95.027C104.923 102.279 112.016 108.059 119.03 113.751C119.427 114.192 119.979 114.464 120.571 114.512C121.163 114.559 121.751 114.378 122.214 114.006C130.891 109.778 138.764 103.657 143.509 95.0668C146.072 90.4257 150.021 78.6915 150.427 73.4135C158.029 72.6174 173.075 73.9946 177.597 75.8017C183.034 77.975 189.538 107.414 189.538 107.414L202.857 101.977C202.857 101.977 198.765 64.7999 188.981 59.9598Z" fill="white"/>
<path d="M120.598 114.889C120.437 114.89 120.277 114.872 120.12 114.833C119.619 114.676 119.161 114.403 118.783 114.037C111.841 108.401 104.668 102.582 99.2152 95.242C97.9175 93.7183 97.0395 91.8827 96.6678 89.9162C96.413 87.8146 97.2011 85.7448 97.9494 83.9615C102.24 73.8752 107.423 66.6628 113.839 61.8067C120.256 56.9506 132.587 52.4528 139.704 57.3566H139.815C141.407 57.2531 179.428 54.7853 189.172 59.6254C199.035 64.5133 203.08 100.432 203.247 101.961C203.257 102.046 203.239 102.133 203.196 102.208C203.153 102.282 203.087 102.341 203.008 102.375L189.689 107.804C189.637 107.829 189.58 107.843 189.522 107.843C189.464 107.843 189.407 107.829 189.355 107.804C189.303 107.779 189.257 107.742 189.221 107.697C189.186 107.651 189.16 107.598 189.148 107.541C187.349 99.4134 181.729 77.9352 177.438 76.2157C172.916 74.4086 158.165 73.0951 150.777 73.8275C150.236 79.2886 146.359 90.768 143.843 95.3216C139.505 103.171 132.284 109.595 122.349 114.427C121.807 114.709 121.209 114.867 120.598 114.889ZM132.069 56.0908C125.908 56.0908 118.719 59.092 114.285 62.4595C108.02 67.1882 102.917 74.3369 98.6818 84.3118C97.9733 85.9995 97.225 87.9499 97.4559 89.8844C97.6867 91.8188 98.7376 93.3314 99.8441 94.828C105.234 102.088 112.374 107.884 119.276 113.48C119.565 113.761 119.913 113.974 120.295 114.101C120.893 114.155 121.492 114.009 121.999 113.687C131.759 108.911 138.868 102.622 143.119 94.9156C145.65 90.3381 149.583 78.6437 149.989 73.4215C149.996 73.328 150.036 73.2401 150.101 73.1731C150.167 73.1061 150.254 73.0644 150.347 73.0553C157.854 72.2592 172.94 73.5648 177.709 75.4435C182.955 77.5451 188.917 102.98 189.801 106.881L202.403 101.738C201.989 98.2113 197.817 64.792 188.798 60.3419C179.778 55.8918 144.56 57.874 140.237 58.1368C140.214 58.2328 140.154 58.3157 140.07 58.3676C140.003 58.4156 139.922 58.4414 139.839 58.4414C139.756 58.4414 139.676 58.4156 139.608 58.3676C137.417 56.7937 134.765 55.9928 132.069 56.0908Z" fill="#231F20"/>
<path d="M103.49 73.4135C102.989 74.6155 67.5552 100.353 63.7499 114.491C60.0084 128.407 85.5306 164.644 85.5306 164.644C85.5306 164.644 93.7223 179.682 96.5802 179.682C99.4381 179.682 100.704 178.392 101.062 175.917C101.42 173.441 98.3953 165.727 98.3953 165.727C98.3953 165.727 103.395 169.898 103.697 167.9C104 165.902 96.0389 161.38 96.0389 161.38C96.0389 161.38 86.0799 122.81 87.3457 119.005C88.6115 115.2 109.859 99.692 109.859 99.692" fill="white"/>
<path d="M96.5802 180.056C93.6347 180.056 86.5655 167.319 85.1804 164.811C85.1804 164.755 78.7401 155.648 72.8889 144.965C64.9918 130.548 61.7916 120.287 63.336 114.388C66.369 103.107 89.1289 84.67 98.849 76.8047C101.03 75.0295 102.917 73.501 103.108 73.2224C103.152 73.1285 103.23 73.0551 103.326 73.018C103.423 72.9808 103.53 72.9828 103.626 73.0234C103.721 73.0715 103.795 73.1542 103.832 73.2547C103.869 73.3553 103.866 73.4661 103.825 73.5647C103.697 73.8831 102.917 74.528 99.3506 77.4177C89.6941 85.2432 67.0775 103.561 64.1082 114.595C60.4542 128.128 85.6023 164.031 85.8252 164.389C89.0095 170.161 94.6378 179.26 96.5484 179.26C99.064 179.26 100.29 178.233 100.64 175.837C100.99 173.441 98.0211 165.926 97.9893 165.854C97.9578 165.772 97.9539 165.681 97.9783 165.597C98.0028 165.512 98.0541 165.437 98.1246 165.384C98.1949 165.329 98.2818 165.299 98.3714 165.299C98.461 165.299 98.5479 165.329 98.6182 165.384C100.338 166.817 102.599 168.21 103.172 167.988C103.172 167.988 103.251 167.988 103.275 167.804C103.458 166.618 99.0162 163.514 95.808 161.691C95.7151 161.636 95.6468 161.547 95.617 161.444C95.211 159.852 85.6501 122.707 86.9397 118.838C88.2293 114.969 108.689 99.9945 109.556 99.3576C109.642 99.2954 109.749 99.2696 109.853 99.286C109.958 99.3024 110.051 99.3597 110.114 99.4452C110.176 99.5307 110.202 99.6375 110.185 99.742C110.169 99.8465 110.111 99.9402 110.026 100.002C104.159 104.285 88.699 116.067 87.7358 119.108C86.7725 122.149 93.6029 150.275 96.3892 161.094C98.037 162.041 104.422 165.87 104.103 167.94C104.085 168.115 104.019 168.282 103.912 168.423C103.805 168.563 103.662 168.671 103.498 168.736C102.527 169.102 100.6 167.876 99.2789 166.889C100.131 169.277 101.747 174.054 101.468 175.948C101.046 178.751 99.5098 180.056 96.5802 180.056Z" fill="#231F20"/>
<path d="M106.237 68.8361C106.237 68.8361 114.627 85.1477 120.829 90.4416C120.829 90.4416 130.016 86.3657 137.761 89.4943C137.761 89.4943 135.039 79.0657 140.476 73.4135L132.053 55.2709L135.588 52.2299C135.588 52.2299 143.445 69.8948 145.643 71.3357C147.84 72.7766 153.524 74.4086 153.524 74.4086L173.338 110.383L179.667 114.762L139.799 143.301C139.799 143.301 116.562 120.605 111.539 110.821C114.03 100.273 115.256 94.3822 115.256 94.3822C115.256 94.3822 104.063 78.6597 102.837 73.4135C101.611 68.1673 106.237 68.8361 106.237 68.8361Z" fill="#231F20"/>
<path d="M139.76 143.819L139.521 143.58C138.573 142.656 116.18 120.732 111.18 111.004L111.117 110.877V110.734C113.354 101.284 114.58 95.5126 114.794 94.4698C113.608 92.7901 103.602 78.5482 102.423 73.5011C102.001 71.686 102.193 70.3168 103.005 69.4331C103.441 69.0382 103.959 68.7448 104.522 68.5741C105.085 68.4034 105.679 68.3597 106.261 68.446H106.468L106.563 68.6291C106.643 68.7883 114.81 84.5984 120.892 89.9481C122.365 89.3351 130.159 86.3816 137.196 88.8256C136.687 86.3498 135.469 78.2616 139.998 73.302L131.56 55.1355L135.723 51.5452L135.938 52.0388C139.083 59.092 144.313 69.9665 145.85 70.9695C147.975 72.3627 153.564 73.9787 153.627 73.9946L153.786 74.0424L153.866 74.1857L173.641 110.081L180.352 114.722L139.76 143.819ZM111.96 110.773C116.737 119.92 137.379 140.364 139.823 142.784L178.958 114.77L173.02 110.662L153.253 74.743C152.298 74.4643 147.466 73.0075 145.42 71.6701C143.374 70.3327 136.925 56.1227 135.445 52.8826L132.539 55.3744L140.954 73.4931L140.763 73.6842C135.548 79.1214 138.12 89.2873 138.143 89.3908L138.342 90.1869L137.61 89.8923C130.119 86.8672 121.076 90.7999 120.988 90.8397L120.757 90.9431L120.566 90.776C114.667 85.7368 107.033 71.1924 105.982 69.2819C105.55 69.2374 105.114 69.2854 104.702 69.4226C104.29 69.5599 103.912 69.7833 103.594 70.0779C102.973 70.7546 102.837 71.885 103.196 73.4215C104.39 78.5402 115.439 94.1195 115.551 94.2548L115.646 94.3981V94.5653C115.63 94.5255 114.404 100.424 111.96 110.773Z" fill="#231F20"/>
<path d="M129.474 63.6536C127.197 64.179 124.984 64.6248 123.002 66.1055C120.057 68.2947 117.899 71.3596 114.818 73.4931C111.523 75.7699 107.582 77.3541 103.936 78.994C102.869 79.4717 104.589 80.3792 103.427 80.1961C99.3665 79.5354 97.3365 75.1649 95.7205 71.9328C91.8521 64.5064 89.0158 56.5866 87.29 48.3928C86.4939 44.1099 83.6758 28.2918 92.7511 31.1497C90.7132 30.5049 95.7842 23.985 96.5803 23.2924C103.976 16.5496 115.614 20.1638 121.529 27.0658C125.812 32.0732 128.79 37.7014 134.267 41.6818C136.655 43.4412 139.409 44.9935 140.858 47.5967C142.594 50.7332 141.941 54.833 139.831 57.7308C137.722 60.6285 134.362 62.4276 130.891 63.3033C130.398 63.4785 129.936 63.5501 129.474 63.6536Z" fill="white"/>
<path d="M103.673 80.618C103.57 80.6275 103.466 80.6275 103.363 80.618C99.263 79.9572 97.2091 75.8415 95.5613 72.5378L95.3622 72.1398C91.1112 63.6615 88.3408 55.9316 86.8999 48.4962C85.6899 42.247 84.9018 34.2146 88.0224 31.4283C88.5488 30.9866 89.1729 30.6768 89.843 30.5245C90.5131 30.3722 91.2098 30.3818 91.8754 30.5526C91.764 28.4112 95.8558 23.4516 96.3096 23.0297C97.7723 21.7083 99.4908 20.7014 101.359 20.0715C103.227 19.4415 105.204 19.202 107.168 19.3677C112.828 19.8521 118.076 22.5219 121.8 26.8111C123.193 28.443 124.467 30.1546 125.701 31.8184C128.328 35.3609 130.812 38.7045 134.458 41.3713C134.895 41.6898 135.349 42.0002 135.795 42.3187C137.833 43.7357 139.943 45.2084 141.161 47.4136C142.896 50.5103 142.498 54.7216 140.11 57.9696C137.602 61.4007 133.741 62.9849 130.947 63.7093C130.485 63.8287 130.016 63.9402 129.546 64.0436L129.211 64.1232C127.07 64.6089 125.04 65.0706 123.225 66.4239C121.888 67.4688 120.632 68.6131 119.467 69.8471C118.121 71.311 116.639 72.6438 115.041 73.8274C112.144 75.7037 109.076 77.3029 105.878 78.6039L104.143 79.4C104.092 79.423 104.044 79.4524 104 79.4876C104.036 79.5756 104.078 79.6607 104.127 79.7423C104.211 79.8367 104.263 79.9546 104.278 80.08C104.292 80.2054 104.267 80.3321 104.207 80.4429C104.14 80.5153 104.056 80.5695 103.963 80.6002C103.869 80.6309 103.77 80.637 103.673 80.618ZM90.7529 31.1974C89.9479 31.1711 89.1638 31.4563 88.5637 31.9935C86.3427 33.9678 86.0402 39.7633 87.696 48.3131C89.121 55.6769 91.8595 63.3431 96.0787 71.7576L96.2777 72.1477C97.8142 75.2206 99.7088 79.0179 103.243 79.7503C103.176 79.5706 103.176 79.3727 103.243 79.193C103.29 79.063 103.365 78.945 103.463 78.8473C103.561 78.7496 103.679 78.6746 103.809 78.6278L105.544 77.8317C108.711 76.5591 111.755 74.9975 114.635 73.1667C116.183 72.0193 117.622 70.7322 118.934 69.3216C120.136 68.0454 121.432 66.8613 122.811 65.7791C124.761 64.3302 126.863 63.8526 129.092 63.3431L129.426 63.2714L130.804 62.9371C133.478 62.2445 137.172 60.7399 139.561 57.4999C141.734 54.5305 142.132 50.6297 140.564 47.7957C139.425 45.7418 137.379 44.3327 135.437 42.9635C134.983 42.6451 134.529 42.3266 134.083 42.0002C130.35 39.2776 127.715 35.7271 125.175 32.2881C123.949 30.6402 122.684 28.9366 121.306 27.3285C117.718 23.1932 112.656 20.6225 107.2 20.1638C105.343 20.0051 103.473 20.2298 101.706 20.8242C99.9396 21.4185 98.314 22.3698 96.9305 23.6188C96.0787 24.4149 92.4645 29.1913 92.767 30.5924C92.7711 30.6421 92.7912 30.689 92.8242 30.7263C92.8572 30.7636 92.9014 30.7893 92.9501 30.7994C93.0005 30.8148 93.0473 30.8401 93.0878 30.8737C93.1283 30.9073 93.1618 30.9487 93.1862 30.9953C93.2106 31.042 93.2256 31.093 93.2301 31.1455C93.2347 31.1979 93.2288 31.2508 93.2128 31.3009C93.1975 31.3512 93.1722 31.3978 93.1385 31.4381C93.1047 31.4783 93.0631 31.5113 93.0163 31.5351C92.9695 31.5589 92.9183 31.573 92.8659 31.5765C92.8135 31.5801 92.7609 31.573 92.7113 31.5557C92.081 31.3355 91.4204 31.2146 90.7529 31.1974Z" fill="#231F20"/>
<path d="M111.865 75.8017L100.72 54.2519C100.72 54.2519 106.905 45.3915 102.471 37.8526C102.471 37.8526 114.842 37.9959 119.81 31.7786C119.81 31.7786 127.158 39.1582 128.782 46.6254C129.285 48.6879 129.176 50.8523 128.469 52.8541C127.762 54.8559 126.488 56.6085 124.801 57.8979L130.374 69.8391" fill="white"/>
<path d="M111.865 76.2157C111.792 76.216 111.721 76.1961 111.659 76.1581C111.597 76.1201 111.547 76.0656 111.515 76.0008L100.37 54.4509C100.334 54.3877 100.315 54.3164 100.315 54.2439C100.315 54.1714 100.334 54.1001 100.37 54.0369C100.433 53.9494 106.356 45.2801 102.105 38.0756C102.07 38.0136 102.052 37.9437 102.052 37.8726C102.052 37.8015 102.07 37.7315 102.105 37.6696C102.146 37.6136 102.199 37.567 102.259 37.5327C102.319 37.4984 102.386 37.4772 102.455 37.4706C102.567 37.4706 114.683 37.5422 119.475 31.5477C119.512 31.5056 119.557 31.4717 119.608 31.4486C119.659 31.4254 119.714 31.4134 119.77 31.4134C119.826 31.4134 119.881 31.4254 119.932 31.4486C119.983 31.4717 120.028 31.5056 120.065 31.5477C120.367 31.8502 127.516 39.0946 129.14 46.5857C129.637 48.6694 129.538 50.8509 128.854 52.8809C128.169 54.9109 126.928 56.7074 125.271 58.0651L130.74 69.7117C130.771 69.8043 130.766 69.9049 130.728 69.9945C130.689 70.084 130.619 70.1563 130.53 70.1975C130.442 70.2388 130.342 70.2461 130.248 70.2182C130.155 70.1903 130.075 70.1291 130.024 70.0461L124.451 58.1049C124.408 58.0205 124.399 57.9233 124.424 57.8321C124.449 57.741 124.507 57.6623 124.586 57.6113C126.215 56.3719 127.445 54.6816 128.123 52.7501C128.801 50.8185 128.897 48.7306 128.399 46.7449C127.006 40.3762 121.235 33.8962 119.834 32.4155C115.296 37.6218 105.783 38.2189 103.116 38.2826C106.659 45.1766 102.025 52.9622 101.158 54.3156L112.247 75.6186C112.295 75.7129 112.305 75.8222 112.274 75.9233C112.242 76.0244 112.173 76.1093 112.08 76.16C112.016 76.2003 111.941 76.2198 111.865 76.2157Z" fill="#231F20"/>
<path d="M104.119 50.7411C104.119 50.7411 96.5324 44.1894 94.8368 51.3621C93.1411 58.5348 101.882 61.4166 105.337 59.1955" fill="white"/>
<path d="M102.423 60.3658C100.547 60.3508 98.7192 59.771 97.1773 58.702C95.998 57.9188 95.098 56.7813 94.6072 55.4535C94.1164 54.1256 94.0602 52.6762 94.4467 51.3143C94.8926 49.4197 95.7842 48.2415 97.0977 47.8196C100.115 46.8404 104.207 50.3272 104.374 50.4785C104.414 50.5115 104.448 50.5523 104.472 50.5984C104.496 50.6445 104.511 50.695 104.515 50.747C104.52 50.799 104.514 50.8513 104.498 50.9009C104.482 50.9504 104.456 50.9963 104.422 51.0357C104.352 51.1159 104.254 51.1657 104.149 51.1747C104.043 51.1836 103.938 51.1509 103.856 51.0835C103.817 51.0835 99.9397 47.732 97.3445 48.5758C96.3175 48.9102 95.6011 49.8894 95.2269 51.4974C94.8795 52.7017 94.9236 53.9851 95.3528 55.1627C95.7821 56.3402 96.5743 57.351 97.6151 58.0492C99.9317 59.6891 103.283 60.0712 105.098 58.901C105.187 58.8505 105.291 58.8359 105.39 58.8601C105.489 58.8844 105.575 58.9457 105.63 59.0315C105.685 59.1172 105.706 59.2208 105.687 59.3209C105.668 59.4211 105.611 59.5101 105.528 59.5697C104.59 60.1245 103.513 60.4006 102.423 60.3658Z" fill="#231F20"/>
<path d="M120.208 50.566C120.156 50.5707 120.103 50.5651 120.053 50.5494C120.003 50.5338 119.956 50.5084 119.916 50.4748C119.876 50.4411 119.842 50.3999 119.818 50.3534C119.794 50.3069 119.779 50.2561 119.774 50.2038C119.769 50.1515 119.775 50.0988 119.791 50.0487C119.806 49.9986 119.832 49.9521 119.865 49.9118C119.899 49.8716 119.94 49.8383 119.987 49.8139C120.033 49.7896 120.084 49.7746 120.136 49.7699C120.136 49.7699 122.803 49.2764 123.695 48.1061C123.695 48.1061 123.695 48.1061 123.695 48.0265C123.488 47.0712 119.873 44.7865 117.382 43.473C117.288 43.4233 117.217 43.3384 117.186 43.2369C117.155 43.1354 117.165 43.0256 117.215 42.9316C117.264 42.8377 117.349 42.7673 117.451 42.7359C117.552 42.7046 117.662 42.7148 117.756 42.7644C118.807 43.3217 124.125 46.1876 124.475 47.8514C124.505 47.9783 124.508 48.1104 124.481 48.2384C124.455 48.3663 124.401 48.4869 124.324 48.5917C123.241 50.0008 120.391 50.5342 120.272 50.5501L120.208 50.566Z" fill="#231F20"/>
<path d="M117.82 55.6689C116.145 55.7048 114.493 55.2808 113.043 54.4429C113.003 54.4084 112.971 54.3665 112.947 54.3194C112.924 54.2723 112.91 54.2211 112.906 54.1686C112.902 54.1161 112.909 54.0634 112.926 54.0135C112.942 53.9636 112.969 53.9175 113.003 53.8777C113.038 53.838 113.08 53.8055 113.127 53.782C113.174 53.7585 113.225 53.7445 113.278 53.7408C113.33 53.7371 113.383 53.7438 113.433 53.7604C113.483 53.7771 113.529 53.8034 113.569 53.8379C115.4 54.822 117.518 55.1346 119.555 54.7216C122.238 54.1404 124.331 52.2299 125.924 49.0535C125.946 49.0059 125.978 48.9633 126.017 48.9279C126.056 48.8926 126.101 48.8652 126.151 48.8475C126.2 48.8298 126.253 48.8219 126.305 48.8245C126.358 48.8271 126.409 48.84 126.457 48.8624C126.505 48.8849 126.547 48.9165 126.583 48.9555C126.618 48.9945 126.645 49.04 126.663 49.0896C126.681 49.1391 126.689 49.1916 126.686 49.2442C126.683 49.2967 126.671 49.3482 126.648 49.3958C125 52.8349 122.668 54.8887 119.706 55.5097C119.085 55.6297 118.452 55.6831 117.82 55.6689Z" fill="#231F20"/>
<path d="M124.785 57.9059C124.785 57.9059 118.791 61.7032 114.683 62.4833C114.683 62.4833 122.301 68.3265 128.344 65.4288L124.785 57.9059Z" fill="#231F20"/>
<path d="M124.602 66.6627C119.523 66.6627 114.699 63.0246 114.444 62.8256C114.382 62.7802 114.335 62.7171 114.31 62.6447C114.284 62.5723 114.281 62.4938 114.301 62.4196C114.317 62.3441 114.355 62.2751 114.41 62.2213C114.465 62.1674 114.535 62.1312 114.611 62.1171C118.592 61.321 124.515 57.6272 124.57 57.5954C124.618 57.5641 124.672 57.5436 124.728 57.5353C124.785 57.527 124.842 57.5313 124.897 57.5476C124.95 57.5635 124.999 57.59 125.041 57.6256C125.084 57.6612 125.119 57.7051 125.143 57.7546L128.702 65.2855C128.745 65.3806 128.75 65.4891 128.714 65.5874C128.678 65.6857 128.605 65.766 128.511 65.8109C127.29 66.3888 125.953 66.6802 124.602 66.6627ZM115.646 62.6823C117.605 63.972 123.177 67.1642 127.81 65.2377L124.626 58.487C123.328 59.2592 119.101 61.735 115.646 62.6823Z" fill="#231F20"/>
<path d="M93.6904 67.6181C96.7235 74.7828 102.575 87.7668 112 79.0816C113.959 77.2493 115.135 74.7307 115.28 72.0522C115.519 67.2041 107.065 64.6328 103.14 63.5342" fill="white"/>
<path d="M105.878 82.3614C105.434 82.3641 104.991 82.3188 104.557 82.2261C98.9287 81.0161 95.2587 72.4025 93.2924 67.7693C93.2715 67.7218 93.2602 67.6706 93.2593 67.6187C93.2584 67.5668 93.2679 67.5153 93.2872 67.4671C93.3065 67.4189 93.3352 67.375 93.3716 67.3381C93.408 67.3011 93.4515 67.2718 93.4994 67.2519C93.5967 67.2114 93.7059 67.2104 93.804 67.249C93.902 67.2877 93.9812 67.3629 94.0248 67.4588C95.8001 71.6382 99.4939 80.3235 104.724 81.4459C106.913 81.9156 109.246 81.024 111.666 78.787C113.565 77.0332 114.707 74.6093 114.85 72.0283C115.081 67.3076 105.99 64.7522 103.005 63.9163C102.954 63.9025 102.906 63.8787 102.864 63.8464C102.823 63.814 102.788 63.7737 102.762 63.7278C102.736 63.6818 102.72 63.6312 102.713 63.5789C102.707 63.5265 102.711 63.4734 102.726 63.4227C102.757 63.3226 102.826 63.2384 102.918 63.188C103.01 63.1375 103.118 63.1246 103.22 63.152C108.665 64.6805 115.885 67.2678 115.646 72.0681C115.509 74.8611 114.29 77.4909 112.247 79.4C110.09 81.3663 107.964 82.3614 105.878 82.3614Z" fill="#231F20"/>
<path d="M112.661 49.1888C115.352 49.1888 117.533 47.0075 117.533 44.3168C117.533 41.6261 115.352 39.4448 112.661 39.4448C109.97 39.4448 107.789 41.6261 107.789 44.3168C107.789 47.0075 109.97 49.1888 112.661 49.1888Z" fill="#231F20"/>
<path d="M112.661 49.5869C111.616 49.5885 110.595 49.28 109.726 48.7007C108.856 48.1213 108.179 47.2971 107.778 46.3324C107.378 45.3676 107.273 44.3057 107.476 43.2812C107.679 42.2566 108.182 41.3154 108.921 40.5768C109.66 39.8382 110.601 39.3353 111.625 39.1319C112.65 38.9285 113.712 39.0337 114.676 39.4342C115.641 39.8346 116.465 40.5124 117.045 41.3815C117.624 42.2507 117.933 43.2723 117.931 44.3168C117.929 45.7139 117.373 47.0531 116.385 48.041C115.397 49.0289 114.058 49.5848 112.661 49.5869ZM112.661 39.8349C111.774 39.8333 110.907 40.0949 110.169 40.5864C109.431 41.0779 108.855 41.7773 108.515 42.5962C108.174 43.415 108.084 44.3164 108.256 45.1863C108.428 46.0563 108.854 46.8556 109.481 47.4832C110.107 48.1108 110.906 48.5385 111.776 48.7121C112.645 48.8856 113.547 48.7973 114.366 48.4584C115.186 48.1194 115.886 47.5449 116.379 46.8077C116.872 46.0705 117.135 45.2036 117.135 44.3168C117.135 43.1295 116.664 41.9907 115.825 41.1505C114.986 40.3102 113.848 39.837 112.661 39.8349Z" fill="#231F20"/>
<path d="M122.461 43.68C125.151 43.68 127.333 41.4987 127.333 38.808C127.333 36.1172 125.151 33.936 122.461 33.936C119.77 33.936 117.589 36.1172 117.589 38.808C117.589 41.4987 119.77 43.68 122.461 43.68Z" fill="#231F20"/>
<path d="M122.461 44.078C121.419 44.078 120.4 43.7691 119.534 43.1904C118.667 42.6116 117.992 41.789 117.593 40.8265C117.193 39.864 117.089 38.8048 117.291 37.7827C117.494 36.7607 117.995 35.8216 118.731 35.0843C119.468 34.3469 120.406 33.8444 121.428 33.6401C122.449 33.4359 123.509 33.5391 124.472 33.9368C125.435 34.3344 126.259 35.0087 126.839 35.8743C127.419 36.7399 127.729 37.758 127.731 38.8C127.731 40.1984 127.176 41.5397 126.188 42.5293C125.2 43.5189 123.859 44.0759 122.461 44.078ZM122.461 34.334C121.575 34.334 120.71 34.5966 119.974 35.0885C119.238 35.5805 118.665 36.2797 118.327 37.0977C117.988 37.9156 117.9 38.8156 118.073 39.6837C118.247 40.5518 118.673 41.3489 119.3 41.9743C119.926 42.5997 120.724 43.0252 121.593 43.1969C122.461 43.3686 123.361 43.2789 124.178 42.9391C124.996 42.5992 125.694 42.0245 126.185 41.2877C126.675 40.551 126.936 39.6852 126.935 38.8C126.93 37.6154 126.457 36.4807 125.619 35.6439C124.781 34.807 123.645 34.3361 122.461 34.334Z" fill="#231F20"/>
<path d="M115.256 42.4699C115.199 42.4694 115.143 42.4571 115.091 42.4338C115.039 42.4105 114.992 42.3767 114.954 42.3346C114.917 42.2982 114.887 42.2549 114.867 42.207C114.847 42.1592 114.837 42.1078 114.837 42.0559C114.837 42.004 114.847 41.9527 114.867 41.9048C114.887 41.857 114.917 41.8136 114.954 41.7773C116.011 40.8344 117.116 39.9469 118.265 39.1184C118.308 39.0879 118.356 39.0661 118.408 39.0544C118.459 39.0426 118.512 39.0412 118.564 39.05C118.616 39.0589 118.665 39.078 118.71 39.1061C118.754 39.1342 118.792 39.1709 118.823 39.2139C118.88 39.3004 118.902 39.4054 118.884 39.5076C118.866 39.6097 118.81 39.7012 118.727 39.7632C118.727 39.7632 117.135 40.9096 115.479 42.3664C115.419 42.4255 115.34 42.4621 115.256 42.4699Z" fill="#231F20"/>
<path d="M179.062 109.317C179.062 109.317 195.23 98.8482 203.923 97.7655C212.617 96.6829 262.515 129.505 262.515 129.505C262.515 129.505 277.417 120.024 278.508 124.872C279.599 129.72 266.328 146.366 261.958 147.727C257.587 149.089 207.546 118.981 207.546 118.981C207.546 118.981 186.354 146.47 181.641 134.903" fill="white"/>
<path d="M261.679 148.157C255.581 148.157 213.914 123.24 207.649 119.498C205.73 121.942 192.77 138.127 185.359 138.127C185.149 138.126 184.939 138.112 184.73 138.087C183.138 137.872 181.975 136.837 181.243 135.03C181.203 134.932 181.203 134.822 181.243 134.723C181.284 134.625 181.361 134.547 181.458 134.505C181.507 134.485 181.559 134.476 181.611 134.476C181.663 134.477 181.715 134.488 181.763 134.509C181.811 134.529 181.855 134.559 181.891 134.597C181.927 134.634 181.956 134.679 181.975 134.727C182.612 136.28 183.568 137.116 184.841 137.299C192.006 138.27 207.052 118.933 207.203 118.734C207.263 118.658 207.349 118.606 207.444 118.589C207.539 118.571 207.638 118.589 207.721 118.639C227.774 130.699 258.733 148.285 261.806 147.345C263.765 146.74 268.024 142.569 271.924 137.37C276.112 131.798 278.532 126.95 278.086 124.96C278.051 124.758 277.965 124.57 277.835 124.412C277.705 124.254 277.536 124.133 277.346 124.06C274.591 122.914 265.834 127.841 262.698 129.84C262.634 129.881 262.559 129.903 262.483 129.903C262.407 129.903 262.332 129.881 262.268 129.84C261.766 129.513 212.394 97.0809 203.939 98.1556C195.485 99.2303 179.404 109.547 179.261 109.651C179.172 109.708 179.064 109.727 178.962 109.705C178.859 109.682 178.769 109.62 178.712 109.532C178.682 109.488 178.662 109.439 178.652 109.387C178.643 109.336 178.643 109.283 178.654 109.231C178.666 109.18 178.687 109.132 178.717 109.089C178.748 109.046 178.786 109.01 178.831 108.982C179.492 108.552 195.174 98.4581 203.86 97.3675C212.545 96.2768 258.479 126.392 262.507 129.028C264.163 127.993 274.201 121.863 277.632 123.32C277.941 123.444 278.214 123.643 278.426 123.898C278.639 124.154 278.785 124.458 278.85 124.784C280.021 130.015 266.352 146.772 262.029 148.11C261.915 148.139 261.797 148.155 261.679 148.157Z" fill="#231F20"/>
<path d="M176.618 115.677C185.63 113.066 197.475 110.527 202.705 111.952C216.836 115.821 237.621 187.627 237.621 187.627C237.621 187.627 252.015 184.307 253.989 186.926C255.963 189.545 233.14 208.198 228.793 204.575C224.446 200.953 190.334 143.277 190.334 143.277C190.334 143.277 181.426 146.573 175.758 147.871" fill="white"/>
<path d="M230.345 205.443C229.696 205.476 229.056 205.279 228.538 204.886C224.303 201.359 193.057 148.667 190.167 143.787C188.575 144.376 180.877 147.13 175.838 148.285C175.732 148.308 175.622 148.288 175.531 148.23C175.44 148.172 175.375 148.08 175.352 147.974C175.329 147.869 175.349 147.758 175.407 147.667C175.465 147.576 175.557 147.512 175.663 147.489C181.235 146.207 190.104 142.943 190.191 142.911C190.277 142.876 190.374 142.874 190.462 142.904C190.55 142.935 190.623 142.997 190.669 143.078C191.011 143.659 224.797 200.722 229.04 204.257C231.508 206.319 242.278 199.608 249.539 192.682C253.519 188.909 253.861 187.412 253.662 187.149C252.341 185.398 243.17 186.743 237.741 188.001C237.642 188.025 237.537 188.01 237.449 187.958C237.361 187.906 237.297 187.821 237.271 187.722C237.064 187.006 216.382 116.075 202.626 112.326C196.4 110.622 181.251 114.714 176.761 116.044C176.711 116.059 176.658 116.065 176.606 116.06C176.554 116.054 176.503 116.039 176.457 116.013C176.411 115.988 176.37 115.954 176.338 115.912C176.305 115.871 176.281 115.824 176.268 115.773C176.253 115.723 176.248 115.67 176.254 115.618C176.26 115.566 176.276 115.516 176.301 115.47C176.326 115.424 176.36 115.384 176.401 115.351C176.441 115.318 176.488 115.294 176.538 115.279C181.084 113.966 196.44 109.794 202.809 111.554C208.795 113.194 216.541 126.496 225.832 151.087C232.2 167.9 237.12 184.522 237.9 187.141C240.495 186.56 252.349 184.084 254.307 186.672C255.056 187.667 253.639 189.856 250.096 193.255C245.24 197.904 235.201 205.443 230.345 205.443Z" fill="#231F20"/>
<path d="M180.248 146.979C168.379 152.79 144.616 150.331 137.921 141.407C126.775 126.592 148.357 126.496 148.357 126.496C148.357 126.496 167.328 112.342 179.969 108.067C179.969 108.067 180.216 113.416 180.192 114.435C181.533 114.05 182.905 113.784 184.292 113.639C179.293 124.92 179.563 139.424 180.248 146.979Z" fill="#231F20"/>
<path d="M163.913 150.53C161.635 150.529 159.359 150.39 157.098 150.116C148.047 149.025 140.763 145.865 137.602 141.677C134.442 137.49 133.622 134.138 134.911 131.495C137.387 126.496 146.924 126.154 148.222 126.13C149.758 124.991 167.766 111.8 179.842 107.716L180.336 107.549V108.075C180.336 108.266 180.527 112.294 180.559 113.966C181.761 113.633 182.988 113.402 184.228 113.273L184.897 113.209L184.627 113.83C179.364 125.66 180.073 140.897 180.646 146.939V147.218L180.399 147.337C176.164 149.455 170.281 150.53 163.913 150.53ZM179.595 108.648C167.161 113.05 148.779 126.711 148.596 126.846L148.485 126.926H148.357C148.254 126.926 138.008 127.029 135.62 131.854C134.458 134.242 135.341 137.347 138.239 141.2C144.456 149.455 167.646 152.512 179.826 146.772C179.293 140.626 178.696 125.907 183.655 114.133C182.525 114.301 181.408 114.546 180.312 114.865L179.786 115.024V114.475C179.81 113.631 179.651 110.025 179.595 108.648Z" fill="#231F20"/>
<path d="M151.725 74.8066C151.638 74.8079 151.554 74.7805 151.484 74.7286C151.415 74.6768 151.365 74.6034 151.342 74.52C151.342 74.4643 149.527 68.4061 147.752 62.953C147.719 62.8527 147.728 62.7436 147.776 62.6495C147.823 62.5555 147.907 62.4843 148.007 62.4515C148.107 62.421 148.215 62.4304 148.309 62.4779C148.402 62.5254 148.474 62.6072 148.508 62.7062C150.284 68.1673 152.091 74.2334 152.107 74.2971C152.121 74.3473 152.126 74.3999 152.12 74.4518C152.115 74.5038 152.099 74.5541 152.074 74.6C152.048 74.6458 152.014 74.6862 151.974 74.719C151.933 74.7517 151.886 74.7761 151.836 74.7907C151.8 74.8038 151.762 74.8092 151.725 74.8066Z" fill="#231F20"/>
<path d="M110.559 178.225C110.463 178.224 110.37 178.188 110.298 178.123C110.227 178.059 110.181 177.971 110.169 177.875C106.921 154.351 124.499 146.462 124.65 146.382C124.698 146.361 124.75 146.35 124.802 146.349C124.855 146.348 124.907 146.358 124.955 146.377C125.004 146.396 125.049 146.425 125.087 146.461C125.124 146.497 125.154 146.541 125.175 146.589C125.196 146.637 125.207 146.689 125.208 146.741C125.209 146.794 125.2 146.846 125.181 146.895C125.161 146.943 125.133 146.988 125.096 147.026C125.06 147.063 125.016 147.094 124.968 147.114C124.801 147.194 107.789 154.86 110.957 177.771C110.971 177.876 110.943 177.982 110.878 178.065C110.814 178.149 110.72 178.203 110.615 178.217L110.559 178.225Z" fill="#231F20"/>
<path d="M166.587 117.142C166.492 117.143 166.399 117.11 166.326 117.049C166.253 116.987 166.205 116.902 166.189 116.808C166.173 116.704 166.198 116.599 166.259 116.514C166.321 116.429 166.413 116.372 166.516 116.354L180.129 114.101C180.181 114.093 180.234 114.095 180.286 114.107C180.337 114.119 180.386 114.142 180.429 114.173C180.472 114.204 180.508 114.243 180.536 114.288C180.563 114.333 180.582 114.383 180.59 114.435C180.599 114.488 180.597 114.541 180.584 114.593C180.572 114.644 180.55 114.693 180.519 114.735C180.488 114.778 180.449 114.815 180.404 114.842C180.358 114.87 180.308 114.889 180.256 114.897L166.651 117.15L166.587 117.142Z" fill="white"/>
<path d="M79.8546 208.962C79.7568 208.961 79.6625 208.926 79.5888 208.862C79.5152 208.797 79.4672 208.709 79.4536 208.612C79.4401 208.515 79.4619 208.417 79.5151 208.335C79.5683 208.253 79.6492 208.193 79.7431 208.166C87.8209 205.889 95.1766 201.571 101.102 195.627C101.146 195.58 101.201 195.545 101.262 195.526C101.324 195.506 101.389 195.503 101.452 195.516C101.514 195.526 101.572 195.55 101.622 195.588C101.672 195.625 101.712 195.674 101.739 195.731C103.641 199.711 108.704 201.216 112.725 200.659C117.016 200.062 120.797 197.721 124.61 195.174C124.654 195.144 124.702 195.124 124.754 195.113C124.805 195.103 124.858 195.103 124.909 195.113C124.96 195.123 125.009 195.143 125.053 195.172C125.097 195.201 125.134 195.238 125.163 195.281C125.193 195.324 125.213 195.373 125.224 195.425C125.234 195.476 125.234 195.529 125.224 195.58C125.214 195.631 125.194 195.68 125.165 195.724C125.136 195.768 125.099 195.805 125.056 195.834C121.163 198.438 117.294 200.826 112.836 201.447C108.856 202.004 103.586 200.698 101.277 196.567C95.3309 202.412 88.0109 206.669 79.9899 208.946L79.8546 208.962Z" fill="#D1D3D4"/>
<path d="M246.052 105.424C245.946 105.434 245.841 105.403 245.759 105.335C245.677 105.268 245.625 105.171 245.614 105.066C245.603 104.96 245.635 104.855 245.702 104.772C245.77 104.69 245.867 104.638 245.972 104.628C247.32 104.259 248.579 103.621 249.674 102.752C250.768 101.883 251.676 100.802 252.341 99.5726C253.699 97.045 254.665 94.326 255.207 91.5084C255.225 91.4312 255.266 91.3611 255.324 91.3072C255.382 91.2534 255.455 91.218 255.533 91.2059C255.612 91.1908 255.694 91.2012 255.767 91.2355C255.84 91.2698 255.9 91.3263 255.939 91.3969C257.396 93.8409 260.493 95.3773 263.844 95.242C266.559 95.1465 269.417 94.1116 272.601 92.0577C272.645 92.0288 272.695 92.0091 272.747 91.9999C272.798 91.9907 272.852 91.9921 272.903 92.004C272.954 92.0159 273.003 92.0381 273.045 92.0692C273.088 92.1003 273.124 92.1397 273.15 92.185C273.207 92.2738 273.227 92.3814 273.204 92.4844C273.182 92.5873 273.12 92.6772 273.031 92.7343C269.719 94.8519 266.718 95.9186 263.86 96.0301C262.334 96.1163 260.808 95.847 259.403 95.2433C257.998 94.6397 256.752 93.7181 255.764 92.5512C255.218 95.1483 254.292 97.6509 253.018 99.9786C252.29 101.303 251.302 102.466 250.111 103.397C248.92 104.328 247.553 105.006 246.092 105.392L246.052 105.424Z" fill="#D1D3D4"/>
<path d="M50.1529 80.7692C50.0474 80.7692 49.9461 80.7273 49.8715 80.6527C49.7968 80.578 49.7549 80.4768 49.7549 80.3712C49.7549 80.2656 49.7968 80.1644 49.8715 80.0897C49.9461 80.0151 50.0474 79.9732 50.1529 79.9732C53.5545 79.8957 56.8594 78.826 59.6611 76.8954C62.4629 74.9649 64.6395 72.2577 65.9232 69.1067C65.945 69.0489 65.9802 68.9972 66.0258 68.9557C66.0715 68.9141 66.1264 68.8841 66.1859 68.8679C66.245 68.8485 66.308 68.8443 66.3691 68.8554C66.4303 68.8665 66.4877 68.8927 66.5362 68.9316C68.6802 70.4522 71.2714 71.2118 73.8971 71.0891C76.5228 70.9665 79.0319 69.9688 81.0248 68.2549C81.1006 68.1814 81.2019 68.1404 81.3074 68.1404C81.413 68.1404 81.5143 68.1814 81.5901 68.2549C81.6271 68.2912 81.6566 68.3346 81.6767 68.3824C81.6968 68.4302 81.7071 68.4816 81.7071 68.5335C81.7071 68.5854 81.6968 68.6368 81.6767 68.6846C81.6566 68.7325 81.6271 68.7758 81.5901 68.8121C79.5239 70.5989 76.9332 71.6659 74.2081 71.8526C71.4829 72.0392 68.7709 71.3354 66.4805 69.847C65.1029 73.0489 62.8284 75.7837 59.9312 77.7217C57.0341 79.6597 53.6381 80.7181 50.1529 80.7692Z" fill="#D1D3D4"/>
<path d="M242.557 173.337C242.471 173.339 242.386 173.312 242.316 173.261C242.246 173.21 242.195 173.138 242.169 173.055C242.144 172.972 242.147 172.884 242.176 172.802C242.206 172.721 242.262 172.652 242.334 172.605C247.453 169.142 251.88 164.755 255.39 159.669C255.433 159.609 255.491 159.563 255.559 159.534C255.626 159.505 255.7 159.495 255.773 159.505C255.845 159.515 255.914 159.544 255.971 159.589C256.029 159.635 256.073 159.695 256.098 159.764C256.982 162.152 259.673 163.394 261.958 163.553C264.521 163.729 267.148 162.877 269.465 162.128L277.831 159.406C277.932 159.373 278.041 159.382 278.135 159.429C278.229 159.477 278.3 159.56 278.333 159.661C278.363 159.762 278.352 159.871 278.303 159.965C278.254 160.058 278.171 160.129 278.07 160.162L269.695 162.885C267.307 163.681 264.617 164.533 261.894 164.349C259.569 164.182 256.855 162.996 255.637 160.703C252.142 165.622 247.796 169.876 242.804 173.266C242.733 173.318 242.645 173.343 242.557 173.337Z" fill="#D1D3D4"/>
<path d="M196.265 58.702C196.175 58.701 196.087 58.6699 196.017 58.6137C195.946 58.5574 195.896 58.4793 195.875 58.3915C195.863 58.3403 195.862 58.2872 195.871 58.2354C195.88 58.1836 195.899 58.134 195.927 58.0896C195.955 58.0452 195.992 58.0068 196.035 57.9767C196.078 57.9465 196.126 57.9251 196.178 57.9139C198.787 57.2692 201.169 55.9176 203.061 54.0076C204.952 52.0976 206.281 49.7031 206.901 47.0872C206.914 47.0188 206.945 46.9553 206.991 46.9034C207.037 46.8515 207.097 46.8132 207.163 46.7926C207.23 46.7697 207.301 46.7649 207.369 46.7789C207.438 46.7929 207.502 46.8252 207.554 46.8722C209.897 48.817 212.816 49.9362 215.859 50.0571C218.902 50.1779 221.9 49.2937 224.391 47.541C224.432 47.5096 224.48 47.4868 224.531 47.4738C224.581 47.4608 224.634 47.458 224.686 47.4653C224.737 47.4727 224.787 47.4903 224.832 47.5169C224.877 47.5435 224.916 47.5787 224.948 47.6206C224.979 47.6624 225.002 47.71 225.015 47.7606C225.028 47.8112 225.031 47.8639 225.023 47.9157C225.016 47.9674 224.999 48.0172 224.972 48.0622C224.945 48.1072 224.91 48.1465 224.868 48.1778C222.317 49.9699 219.264 50.9069 216.147 50.854C213.03 50.8011 210.01 49.761 207.522 47.8833C206.801 50.5148 205.386 52.9043 203.425 54.8019C201.465 56.6994 199.03 58.0354 196.377 58.6701L196.265 58.702Z" fill="#D1D3D4"/>
<path d="M157.273 220.696C157.189 220.696 157.108 220.67 157.039 220.621C156.971 220.573 156.919 220.504 156.891 220.425C156.858 220.326 156.865 220.218 156.912 220.124C156.958 220.03 157.039 219.958 157.138 219.924C164.024 217.536 167.678 210.299 170.822 203.111C170.847 203.059 170.881 203.013 170.923 202.974C170.966 202.936 171.015 202.907 171.069 202.888C171.121 202.866 171.176 202.855 171.232 202.855C171.288 202.855 171.344 202.866 171.396 202.888C174.357 204.589 177.77 205.343 181.173 205.047C184.576 204.751 187.806 203.419 190.43 201.232L190.693 200.993C191.306 200.354 192.061 199.868 192.898 199.576C193.546 199.434 194.215 199.409 194.872 199.504L195.35 199.544C196.741 199.62 198.133 199.389 199.425 198.866C200.717 198.343 201.878 197.542 202.825 196.519C202.861 196.482 202.904 196.453 202.952 196.432C203 196.412 203.052 196.402 203.103 196.402C203.155 196.402 203.207 196.412 203.255 196.432C203.302 196.453 203.346 196.482 203.382 196.519C203.42 196.555 203.45 196.598 203.471 196.646C203.492 196.694 203.503 196.745 203.503 196.798C203.503 196.85 203.492 196.902 203.471 196.949C203.45 196.997 203.42 197.041 203.382 197.076C202.365 198.194 201.113 199.072 199.715 199.647C198.318 200.223 196.811 200.481 195.302 200.404H194.8C194.24 200.317 193.668 200.33 193.113 200.444C192.396 200.709 191.75 201.137 191.226 201.694L190.955 201.932C188.276 204.209 184.968 205.616 181.47 205.967C177.972 206.318 174.45 205.597 171.372 203.899C168.187 211.119 164.462 218.276 157.401 220.736C157.356 220.731 157.313 220.717 157.273 220.696Z" fill="#D1D3D4"/>
<path d="M40.186 153.969H39.8039C39.6976 153.96 39.5987 153.911 39.5287 153.83C39.4587 153.75 39.4231 153.645 39.4297 153.539C39.4327 153.487 39.4461 153.436 39.4691 153.389C39.4921 153.342 39.5242 153.301 39.5635 153.267C39.6028 153.233 39.6486 153.207 39.698 153.191C39.7475 153.174 39.7998 153.168 39.8517 153.173C42.3115 153.332 44.3734 151.453 45.3764 150.315C46.0213 149.59 46.6024 148.786 47.1756 148.014C47.917 146.942 48.7422 145.931 49.6434 144.989C49.7178 144.916 49.8179 144.875 49.922 144.875C50.0262 144.875 50.1263 144.916 50.2007 144.989C51.7835 146.432 53.8209 147.277 55.9607 147.378C58.1005 147.478 60.2081 146.827 61.9189 145.538C61.9589 145.505 62.0051 145.479 62.055 145.464C62.1049 145.448 62.1574 145.443 62.2094 145.448C62.2613 145.453 62.3117 145.469 62.3576 145.494C62.4034 145.519 62.4438 145.553 62.4762 145.594C62.5427 145.677 62.574 145.782 62.5636 145.888C62.5532 145.994 62.5018 146.091 62.4205 146.159C60.6088 147.522 58.3889 148.232 56.1223 148.173C53.8557 148.114 51.676 147.289 49.938 145.833C49.1732 146.668 48.4657 147.553 47.8204 148.484C47.2393 149.28 46.6342 150.076 45.9735 150.872C44.9466 152.026 42.821 153.969 40.186 153.969Z" fill="#D1D3D4"/>
<path d="M154.622 42.7804C154.517 42.7972 154.409 42.7715 154.322 42.7088C154.236 42.6461 154.177 42.5516 154.161 42.446C154.144 42.3404 154.169 42.2325 154.232 42.1459C154.295 42.0593 154.389 42.0012 154.495 41.9843C155.978 41.4897 157.33 40.6675 158.452 39.5788C159.574 38.49 160.436 37.1627 160.975 35.6953C161.182 35.0982 161.469 34.3021 162.233 34.1031C162.721 34.0118 163.226 34.0964 163.658 34.3419C165.17 34.9788 166.809 35.2577 168.447 35.1569C170.084 35.0561 171.677 34.5783 173.099 33.7608C173.189 33.7202 173.291 33.7144 173.385 33.7444C173.478 33.7745 173.558 33.8383 173.607 33.9234C173.657 34.0086 173.673 34.1092 173.653 34.2056C173.632 34.302 173.577 34.3875 173.497 34.4454C171.977 35.3226 170.274 35.8378 168.522 35.951C166.77 36.0642 165.016 35.7724 163.395 35.0982C163.111 34.9241 162.78 34.8433 162.448 34.8673C162.082 34.9708 161.898 35.5122 161.723 35.9818C161.144 37.5642 160.215 38.9957 159.007 40.1699C157.798 41.3441 156.34 42.2309 154.742 42.7644L154.622 42.7804Z" fill="#D1D3D4"/>
</svg>
