<svg width="406" height="306" viewBox="0 0 406 306" fill="none" xmlns="http://www.w3.org/2000/svg">
<path d="M342.796 107.152H63.2142C54.8057 107.152 47.9892 113.969 47.9892 122.377V183.054C47.9892 191.463 54.8057 198.279 63.2142 198.279H342.796C351.204 198.279 358.021 191.463 358.021 183.054V122.377C358.021 113.969 351.204 107.152 342.796 107.152Z" fill="white"/>
<path d="M342.786 107.152C346.824 107.152 350.696 108.757 353.551 111.612C356.407 114.467 358.011 118.34 358.011 122.377V183.054C358.011 187.092 356.407 190.965 353.551 193.82C350.696 196.675 346.824 198.279 342.786 198.279H63.2142C59.1763 198.279 55.3037 196.675 52.4485 193.82C49.5932 190.965 47.9892 187.092 47.9892 183.054V122.377C47.9892 118.34 49.5932 114.467 52.4485 111.612C55.3037 108.757 59.1763 107.152 63.2142 107.152H342.786ZM342.786 106.137H63.2142C58.9071 106.137 54.7764 107.848 51.7308 110.894C48.6852 113.94 46.9742 118.07 46.9742 122.377V183.054C46.9742 187.361 48.6852 191.492 51.7308 194.538C54.7764 197.583 58.9071 199.294 63.2142 199.294H342.786C347.093 199.294 351.224 197.583 354.269 194.538C357.315 191.492 359.026 187.361 359.026 183.054V122.377C359.026 118.07 357.315 113.94 354.269 110.894C351.224 107.848 347.093 106.137 342.786 106.137Z" fill="#231F20"/>
<path d="M278.567 107.152V198.279H63.2142C59.1763 198.279 55.3037 196.675 52.4485 193.82C49.5933 190.965 47.9892 187.092 47.9892 183.054V122.377C47.9892 118.34 49.5933 114.467 52.4485 111.612C55.3037 108.757 59.1763 107.152 63.2142 107.152H278.567Z" fill="#FFC300"/>
<path d="M232.77 190.819C232.77 190.819 230.588 194.879 230.984 195.721C231.379 196.564 235.845 198.167 235.693 198.614C235.541 199.061 225.827 198.817 225.482 198.32C225.137 197.822 225.279 197.619 225.228 196.422C225.178 195.224 228.791 189.672 228.791 189.672" fill="#231F20"/>
<path d="M232.303 199.335C229.38 199.335 225.462 199.172 225.066 198.604C224.789 198.208 224.669 197.723 224.731 197.244C224.731 197.041 224.731 196.787 224.731 196.442C224.68 195.183 227.502 190.728 228.375 189.398C228.41 189.341 228.456 189.292 228.511 189.253C228.566 189.214 228.627 189.187 228.693 189.173C228.758 189.159 228.826 189.158 228.891 189.17C228.957 189.183 229.02 189.208 229.075 189.246C229.188 189.318 229.268 189.433 229.296 189.564C229.325 189.696 229.3 189.833 229.228 189.946C227.533 192.555 225.726 195.762 225.746 196.401C225.746 196.767 225.746 197.041 225.746 197.254C225.746 197.67 225.746 197.782 225.837 197.934C228.675 198.293 231.536 198.418 234.394 198.31L233.582 197.914C231.856 197.081 230.791 196.533 230.537 195.884C230.09 194.869 231.653 191.824 232.344 190.535C232.376 190.476 232.419 190.424 232.471 190.382C232.523 190.34 232.583 190.309 232.647 190.29C232.711 190.271 232.778 190.265 232.844 190.272C232.911 190.28 232.975 190.3 233.034 190.332C233.092 190.364 233.144 190.407 233.186 190.459C233.228 190.511 233.259 190.571 233.278 190.635C233.297 190.699 233.303 190.766 233.296 190.832C233.289 190.899 233.269 190.963 233.237 191.022C232.151 193.052 231.339 195.082 231.471 195.478C232.256 196.085 233.12 196.583 234.039 196.96C235.713 197.772 236.404 198.107 236.19 198.736C236.069 199.101 235.653 199.162 235.409 199.203C235.165 199.243 233.795 199.335 232.303 199.335Z" fill="#231F20"/>
<path d="M228.172 153.071L210.765 148.108L195.834 170.356C195.834 170.356 174.925 183.785 174.925 184.404C174.925 185.267 178.498 191.174 178.498 191.174C178.498 191.174 191.693 185.937 202.503 181.024C211.11 177.137 219.92 164.277 219.92 164.277L236.495 171.899L226.345 190.819L234.13 191.499C234.13 191.499 245.295 176.274 249 167.941C252.705 159.608 228.172 153.071 228.172 153.071Z" fill="#231F20"/>
<path d="M234.079 192.006L226.284 191.326C226.201 191.319 226.122 191.291 226.053 191.245C225.983 191.199 225.927 191.136 225.888 191.063C225.848 190.989 225.827 190.907 225.827 190.824C225.827 190.741 225.848 190.659 225.888 190.585L235.876 172.153L220.133 164.967C218.621 167.108 210.694 177.959 202.746 181.552C192.099 186.353 178.853 191.6 178.721 191.651C178.611 191.698 178.487 191.702 178.374 191.665C178.26 191.628 178.164 191.551 178.102 191.448C177.006 189.631 174.458 185.358 174.458 184.414C174.458 184.059 174.458 183.521 195.509 170.001L210.379 147.844C210.438 147.754 210.523 147.685 210.623 147.646C210.724 147.608 210.834 147.603 210.937 147.631L228.355 152.584C229.136 152.797 246.178 157.395 249.355 164.033C249.683 164.667 249.863 165.368 249.881 166.082C249.898 166.796 249.753 167.504 249.457 168.154C245.772 176.497 234.638 191.651 234.526 191.803C234.475 191.873 234.408 191.928 234.329 191.964C234.251 191.999 234.165 192.014 234.079 192.006ZM227.106 190.372L233.836 190.961C235.247 189.032 245.092 175.411 248.492 167.738C248.728 167.221 248.843 166.656 248.827 166.088C248.811 165.52 248.665 164.963 248.401 164.459C245.417 158.227 228.223 153.599 228.101 153.558L211.039 148.696L196.311 170.641C196.272 170.695 196.224 170.743 196.169 170.783C188.475 175.726 176.884 183.277 175.524 184.546C176.47 186.615 177.552 188.619 178.762 190.545C181.056 189.631 192.759 184.942 202.35 180.608C210.734 176.832 219.473 164.165 219.605 164.033C219.673 163.935 219.774 163.864 219.889 163.832C220.004 163.801 220.126 163.811 220.235 163.861L236.85 171.443C236.913 171.471 236.97 171.511 237.017 171.562C237.064 171.613 237.101 171.672 237.124 171.737C237.152 171.801 237.167 171.87 237.167 171.94C237.167 172.01 237.152 172.079 237.124 172.143L227.106 190.372Z" fill="#231F20"/>
<path d="M269.757 134.811C269.757 134.811 277.004 135.004 277.136 134.811C277.268 134.618 278.739 123.646 277.592 124.093C276.445 124.539 274.091 130.822 274.091 130.822L268.894 130.335" fill="white"/>
<path d="M274.953 135.41C273.817 135.41 272.162 135.41 269.736 135.319C269.67 135.317 269.605 135.303 269.544 135.276C269.484 135.249 269.429 135.211 269.384 135.162C269.338 135.114 269.303 135.057 269.28 134.995C269.257 134.933 269.246 134.867 269.249 134.801C269.257 134.668 269.314 134.543 269.41 134.451C269.506 134.359 269.634 134.306 269.767 134.304C272.588 134.385 275.755 134.425 276.719 134.365C276.983 132.862 277.734 126.63 277.491 124.854C276.297 126.794 275.314 128.856 274.557 131.005C274.518 131.108 274.446 131.195 274.353 131.254C274.26 131.313 274.15 131.339 274.04 131.33L268.853 130.843C268.719 130.83 268.596 130.765 268.509 130.663C268.422 130.561 268.378 130.429 268.386 130.294C268.404 130.161 268.471 130.039 268.574 129.952C268.678 129.866 268.81 129.821 268.945 129.828L273.756 130.284C274.456 128.467 276.242 124.113 277.399 123.626C277.536 123.569 277.688 123.559 277.832 123.597C277.975 123.636 278.101 123.721 278.191 123.839C279.105 124.996 277.846 134.71 277.552 135.116C277.42 135.288 277.328 135.41 274.953 135.41Z" fill="#231F20"/>
<path d="M231.816 125.595C228.578 124.164 225.502 127.341 223.696 129.655C218.935 135.583 215.109 142.414 210.937 148.798C210.937 148.798 219.92 164.398 232.364 156.553L246.127 135.694H268.376C268.376 135.694 268.447 134.05 268.376 129.929C268.376 129.848 232.942 126.082 231.816 125.595Z" fill="white"/>
<path d="M225.33 159.192C224.348 159.194 223.37 159.074 222.417 158.836C215.21 157.05 210.684 149.316 210.491 148.981C210.443 148.901 210.418 148.81 210.418 148.717C210.418 148.624 210.443 148.533 210.491 148.453C211.719 146.575 212.937 144.626 214.114 142.738C216.893 138.07 219.943 133.57 223.249 129.259C224.427 127.798 227.979 123.352 231.958 125.108C232.821 125.402 244.209 126.732 265.798 129.076C268.843 129.401 268.843 129.401 268.843 129.828C268.904 133.888 268.843 135.572 268.843 135.644C268.838 135.775 268.782 135.898 268.687 135.989C268.593 136.08 268.467 136.131 268.336 136.131H246.401L232.78 156.766C232.745 156.828 232.692 156.877 232.628 156.908C230.465 158.353 227.931 159.146 225.33 159.192V159.192ZM211.536 148.737C212.389 150.097 216.611 156.35 222.701 157.872C224.292 158.243 225.943 158.279 227.548 157.979C229.154 157.678 230.68 157.047 232.029 156.126L245.731 135.369C245.779 135.299 245.842 135.241 245.916 135.201C245.99 135.16 246.073 135.138 246.158 135.136H267.919C267.919 134.426 267.919 132.893 267.919 130.335L265.778 130.102C242.879 127.615 232.354 126.377 231.653 126.042C229.451 125.027 226.995 126.326 224.132 129.899C220.831 134.177 217.781 138.644 214.997 143.276C213.871 145.083 212.703 146.91 211.536 148.737V148.737Z" fill="#231F20"/>
<path d="M235.196 125.372C231.359 124.479 232.78 117.81 233.795 115.11C233.994 114.51 234.304 113.952 234.709 113.466C235.149 113.046 235.673 112.725 236.247 112.523C236.821 112.322 237.432 112.246 238.038 112.299C239.244 112.411 240.441 112.604 241.621 112.877C244.316 113.332 247.083 113.091 249.66 112.177C250.532 111.862 251.537 111.497 252.319 111.984C252.557 112.159 252.754 112.385 252.896 112.644C253.038 112.904 253.122 113.191 253.141 113.486C253.186 114.186 253.052 114.886 252.752 115.52C252.452 116.154 251.996 116.701 251.426 117.11C250.249 117.855 248.899 118.282 247.508 118.348C247.69 119.434 247.873 119.779 247.224 120.672C246.577 121.476 245.798 122.162 244.919 122.702C243.977 123.24 242.997 123.708 241.986 124.103C239.865 125.037 237.794 125.859 235.389 125.412L235.196 125.372Z" fill="white"/>
<path d="M236.769 126.042C236.275 126.042 235.783 125.998 235.297 125.91H235.084C234.602 125.808 234.15 125.599 233.759 125.299C233.369 124.998 233.052 124.614 232.831 124.174C231.45 121.616 232.547 117.069 233.318 115.039C233.54 114.375 233.884 113.759 234.333 113.222C234.823 112.751 235.408 112.389 236.048 112.16C236.688 111.931 237.37 111.84 238.048 111.893C238.906 111.944 239.759 112.07 240.596 112.268L241.702 112.481C244.313 112.918 246.992 112.684 249.487 111.801C250.502 111.456 251.608 111.05 252.532 111.659C252.83 111.875 253.075 112.155 253.251 112.478C253.427 112.801 253.528 113.159 253.547 113.527C253.601 114.31 253.454 115.094 253.12 115.805C252.786 116.515 252.276 117.129 251.639 117.587C250.558 118.316 249.305 118.75 248.005 118.845C248.113 119.22 248.128 119.616 248.049 119.998C247.969 120.38 247.797 120.737 247.548 121.038C246.859 121.89 246.033 122.621 245.102 123.2C244.349 123.646 243.561 124.033 242.747 124.357L242.098 124.641C240.437 125.469 238.623 125.946 236.769 126.042V126.042ZM237.784 112.847C237.28 112.817 236.776 112.892 236.303 113.067C235.829 113.242 235.397 113.512 235.033 113.862C234.67 114.299 234.394 114.802 234.221 115.344C233.389 117.566 232.557 121.616 233.673 123.697C233.828 124.008 234.05 124.28 234.324 124.492C234.599 124.705 234.917 124.853 235.257 124.925V124.925H235.419C237.632 125.341 239.479 124.631 241.722 123.656L242.382 123.372C243.146 123.074 243.883 122.71 244.585 122.286C245.412 121.783 246.147 121.141 246.757 120.388C247.183 119.789 247.152 119.607 247.021 118.845L246.949 118.449C246.929 118.314 246.961 118.176 247.041 118.064C247.081 118.011 247.131 117.967 247.189 117.933C247.246 117.9 247.31 117.879 247.376 117.871H247.599C248.829 117.808 250.022 117.427 251.06 116.765C251.561 116.412 251.963 115.936 252.228 115.383C252.493 114.831 252.611 114.219 252.573 113.608C252.559 113.388 252.5 113.173 252.398 112.977C252.297 112.782 252.156 112.609 251.984 112.471C251.426 112.126 250.573 112.471 249.812 112.694C247.171 113.633 244.334 113.881 241.57 113.415C241.184 113.354 240.809 113.273 240.423 113.202C239.644 113.011 238.849 112.892 238.048 112.847H237.784Z" fill="#231F20"/>
<path d="M245.508 123.464C245.508 123.464 245.782 126.661 245.194 126.975C244.605 127.29 243.712 126.377 243.712 126.377" fill="white"/>
<path d="M244.919 127.544C244.318 127.468 243.764 127.18 243.356 126.732C243.274 126.634 243.231 126.509 243.237 126.381C243.243 126.254 243.297 126.133 243.388 126.043C243.479 125.953 243.6 125.901 243.728 125.897C243.856 125.893 243.981 125.937 244.077 126.021C244.402 126.346 244.848 126.58 244.96 126.529C245.092 125.518 245.092 124.495 244.96 123.484C244.952 123.35 244.995 123.218 245.083 123.115C245.17 123.013 245.293 122.949 245.427 122.936C245.494 122.93 245.561 122.938 245.624 122.958C245.688 122.979 245.747 123.012 245.798 123.055C245.849 123.099 245.891 123.152 245.921 123.211C245.952 123.271 245.97 123.336 245.975 123.403C246.178 125.747 245.975 127.087 245.386 127.402C245.245 127.486 245.084 127.535 244.919 127.544Z" fill="#231F20"/>
<path d="M247.853 118.033C248.401 119.373 246.209 123.108 245.589 124.123C244.723 125.686 243.823 127.222 242.889 128.731C242.301 129.685 239.723 128.315 239.438 127.716L237.703 131.847C236.479 131.384 235.442 130.532 234.749 129.422C233.206 127.341 233.45 126.843 233.45 126.843L236.079 122.428C236.698 122.695 237.379 122.785 238.047 122.691C238.715 122.596 239.344 122.319 239.865 121.89C241.402 120.619 242.677 119.06 243.62 117.302C243.62 117.302 247.315 116.714 247.853 118.033Z" fill="white"/>
<path d="M237.703 132.456H237.591C236.245 131.978 235.101 131.059 234.343 129.848C233.196 128.295 232.74 127.249 232.993 126.742L235.653 122.286C235.72 122.174 235.829 122.092 235.956 122.058C236.083 122.024 236.218 122.04 236.333 122.103C236.869 122.324 237.455 122.394 238.028 122.304C238.6 122.215 239.138 121.97 239.581 121.596C241.05 120.372 242.27 118.876 243.174 117.191C243.209 117.122 243.259 117.063 243.32 117.017C243.382 116.971 243.453 116.94 243.529 116.927C244.209 116.795 247.66 116.247 248.32 117.861C248.848 119.15 247.609 121.647 246.198 124.154L246.036 124.448C245.173 125.991 244.26 127.544 243.326 129.066C243.194 129.268 243.008 129.429 242.789 129.529C242.57 129.63 242.327 129.666 242.088 129.635C241.198 129.546 240.347 129.224 239.621 128.701L238.17 132.162C238.129 132.251 238.063 132.326 237.98 132.378C237.897 132.43 237.801 132.458 237.703 132.456V132.456ZM233.947 127.097C234.198 127.884 234.609 128.61 235.155 129.229C235.748 130.07 236.526 130.764 237.429 131.259L238.972 127.595C239.007 127.506 239.066 127.429 239.144 127.373C239.221 127.317 239.313 127.285 239.408 127.28C239.505 127.275 239.602 127.298 239.687 127.347C239.772 127.395 239.84 127.467 239.885 127.554C240.523 128.12 241.321 128.475 242.169 128.569C242.26 128.569 242.412 128.569 242.463 128.478C243.387 126.975 244.3 125.433 245.143 123.9L245.315 123.606C246.96 120.682 247.66 118.866 247.345 118.196C247.031 117.526 245.315 117.617 243.905 117.83C242.954 119.58 241.668 121.126 240.119 122.377C239.579 122.795 238.949 123.08 238.279 123.21C237.609 123.341 236.918 123.313 236.262 123.129L233.947 127.097Z" fill="#231F20"/>
<path d="M243.488 127.625C243.012 127.476 242.605 127.162 242.339 126.74C242.073 126.318 241.966 125.815 242.037 125.321" fill="white"/>
<path d="M243.488 128.102H243.367C242.774 127.922 242.265 127.537 241.931 127.017C241.596 126.496 241.457 125.873 241.54 125.26C241.55 125.125 241.614 125.001 241.717 124.913C241.82 124.826 241.953 124.782 242.088 124.793C242.222 124.804 242.347 124.868 242.435 124.97C242.522 125.073 242.565 125.207 242.555 125.341C242.488 125.717 242.56 126.105 242.758 126.432C242.956 126.759 243.266 127.003 243.63 127.117C243.765 127.135 243.887 127.205 243.97 127.313C244.053 127.42 244.089 127.556 244.072 127.691C244.054 127.826 243.984 127.948 243.877 128.03C243.769 128.113 243.633 128.15 243.498 128.132L243.488 128.102Z" fill="#231F20"/>
<path d="M241.976 122.834C242.14 122.418 242.189 121.966 242.118 121.525C242.111 121.18 242.053 120.838 241.946 120.51C241.886 120.348 241.793 120.201 241.672 120.079C241.551 119.956 241.406 119.861 241.245 119.799C241.096 119.761 240.94 119.755 240.787 119.781C240.635 119.807 240.49 119.865 240.362 119.952C240.108 120.125 239.896 120.354 239.743 120.622C239.398 121.194 239.21 121.847 239.197 122.515C239.185 123.183 239.349 123.843 239.672 124.428V124.286" fill="white"/>
<path d="M239.591 124.874C239.517 124.878 239.444 124.861 239.379 124.825C239.314 124.789 239.261 124.736 239.225 124.671C238.856 124.005 238.669 123.253 238.685 122.492C238.702 121.731 238.919 120.987 239.317 120.337C239.514 120.01 239.777 119.727 240.088 119.505C240.279 119.382 240.492 119.301 240.716 119.266C240.94 119.231 241.169 119.243 241.387 119.302C241.621 119.385 241.834 119.519 242.01 119.694C242.185 119.87 242.32 120.083 242.402 120.317C242.524 120.712 242.585 121.122 242.585 121.535C242.668 122.071 242.597 122.62 242.382 123.118C242.317 123.237 242.209 123.325 242.08 123.365C241.951 123.405 241.812 123.393 241.692 123.332C241.629 123.291 241.575 123.238 241.534 123.175C241.493 123.113 241.466 123.042 241.455 122.968C241.443 122.894 241.448 122.819 241.467 122.747C241.487 122.675 241.522 122.608 241.57 122.55C241.691 122.226 241.722 121.875 241.661 121.535C241.659 121.242 241.611 120.951 241.519 120.672C241.492 120.579 241.444 120.494 241.379 120.422C241.314 120.35 241.233 120.293 241.144 120.256C241.065 120.238 240.984 120.236 240.905 120.252C240.827 120.268 240.752 120.3 240.687 120.347C240.496 120.477 240.339 120.651 240.23 120.855C239.957 121.31 239.797 121.824 239.763 122.354C239.73 122.884 239.824 123.414 240.037 123.9C240.107 123.957 240.157 124.036 240.179 124.123C240.212 124.251 240.202 124.385 240.151 124.506C240.099 124.627 240.01 124.728 239.895 124.793C239.8 124.84 239.697 124.868 239.591 124.874V124.874Z" fill="#231F20"/>
<path d="M239.438 127.818C238.808 127.158 238.381 126.329 238.21 125.433C238.21 125.433 237.003 127.858 238.667 129.655L239.438 127.818Z" fill="#231F20"/>
<path d="M238.667 130.162C238.597 130.162 238.527 130.147 238.463 130.119C238.398 130.091 238.34 130.051 238.292 130C236.414 127.97 237.703 125.321 237.754 125.209C237.804 125.111 237.884 125.032 237.983 124.982C238.081 124.933 238.193 124.917 238.302 124.935C238.41 124.954 238.509 125.008 238.584 125.089C238.66 125.17 238.706 125.272 238.718 125.382C238.876 126.149 239.254 126.854 239.804 127.412C239.874 127.483 239.921 127.573 239.939 127.67C239.957 127.768 239.945 127.869 239.905 127.96L239.134 129.797C239.1 129.876 239.047 129.945 238.98 129.998C238.912 130.051 238.833 130.087 238.748 130.102L238.667 130.162ZM238.302 127.117C238.24 127.636 238.317 128.161 238.525 128.64L238.819 127.96C238.626 127.7 238.453 127.425 238.302 127.138V127.117Z" fill="#231F20"/>
<path d="M245.415 122.065C245.634 121.788 245.722 121.493 245.612 121.406C245.502 121.319 245.235 121.474 245.017 121.751C244.798 122.029 244.71 122.324 244.82 122.411C244.93 122.497 245.197 122.343 245.415 122.065Z" fill="#231F20"/>
<path d="M245.924 122.225C245.844 122.228 245.764 122.209 245.693 122.172C245.622 122.135 245.562 122.08 245.518 122.012L244.696 120.916C244.657 120.863 244.629 120.802 244.613 120.738C244.598 120.674 244.595 120.607 244.605 120.542C244.616 120.477 244.639 120.415 244.674 120.359C244.708 120.302 244.754 120.254 244.808 120.216C244.916 120.135 245.051 120.1 245.184 120.119C245.317 120.138 245.438 120.209 245.518 120.317L246.33 121.413C246.37 121.467 246.398 121.528 246.414 121.593C246.43 121.658 246.432 121.726 246.422 121.792C246.412 121.858 246.388 121.921 246.354 121.978C246.319 122.035 246.273 122.084 246.219 122.124C246.133 122.187 246.031 122.222 245.924 122.225Z" fill="#231F20"/>
<path d="M177.402 183.541C177.402 183.541 169.332 188.332 169.332 189.093C169.332 189.855 168.439 189.449 171.21 195.265C172.377 197.731 177.757 199.325 177.209 197.467C175.646 192.118 175.747 191.55 175.747 191.55L182.162 188.972" fill="#231F20"/>
<path d="M176.356 198.787C174.641 198.787 171.657 197.406 170.743 195.478C168.409 190.555 168.602 189.916 168.784 189.296C168.795 189.229 168.795 189.161 168.784 189.093C168.784 188.779 168.784 188.078 177.097 183.105C177.215 183.038 177.354 183.019 177.485 183.054C177.616 183.088 177.728 183.172 177.798 183.288C177.864 183.404 177.882 183.541 177.848 183.67C177.814 183.8 177.73 183.91 177.615 183.978C174.103 186.069 170.276 188.555 169.799 189.195C169.788 189.326 169.761 189.456 169.718 189.581C169.617 189.916 169.454 190.474 171.626 195.041C172.225 196.31 174.204 197.406 175.686 197.701C176.017 197.799 176.37 197.799 176.701 197.701C176.701 197.701 176.701 197.701 176.701 197.599C176.007 195.603 175.514 193.542 175.23 191.448C175.244 191.364 175.28 191.284 175.333 191.217C175.386 191.15 175.455 191.097 175.534 191.063L181.949 188.495C182.073 188.444 182.212 188.445 182.335 188.496C182.459 188.547 182.557 188.645 182.609 188.769C182.66 188.894 182.659 189.034 182.608 189.159C182.557 189.285 182.459 189.385 182.335 189.438L176.245 191.864C176.618 193.705 177.089 195.524 177.655 197.315C177.708 197.444 177.734 197.583 177.73 197.723C177.727 197.863 177.695 198.001 177.636 198.127C177.577 198.254 177.492 198.367 177.387 198.46C177.282 198.552 177.159 198.622 177.026 198.665C176.811 198.742 176.585 198.783 176.356 198.787V198.787Z" fill="#231F20"/>
<path d="M269.757 137.389C269.757 137.389 277.004 137.582 277.136 137.389C277.268 137.196 279.379 125.575 278.232 126.052C277.085 126.529 274.71 132.629 274.71 132.629L268.894 132.913" fill="white"/>
<path d="M274.953 137.988C273.827 137.988 272.172 137.988 269.736 137.897C269.603 137.892 269.478 137.834 269.387 137.738C269.296 137.641 269.246 137.512 269.249 137.379C269.248 137.312 269.26 137.245 269.286 137.182C269.312 137.12 269.35 137.063 269.399 137.017C269.447 136.97 269.505 136.934 269.568 136.911C269.632 136.887 269.699 136.878 269.767 136.882C272.609 136.953 275.786 136.993 276.74 136.943C277.422 133.622 277.866 130.258 278.069 126.874C276.903 128.748 275.934 130.738 275.177 132.812C275.142 132.903 275.081 132.982 275.001 133.04C274.922 133.098 274.828 133.131 274.73 133.136L268.924 133.421C268.858 133.424 268.791 133.414 268.728 133.392C268.665 133.369 268.607 133.335 268.558 133.29C268.458 133.2 268.398 133.073 268.391 132.939C268.385 132.804 268.432 132.672 268.522 132.572C268.613 132.472 268.739 132.412 268.874 132.406L274.355 132.132C275.045 130.386 276.862 126.042 278.039 125.585C278.172 125.526 278.32 125.514 278.46 125.551C278.6 125.588 278.724 125.672 278.81 125.788C279.825 127.067 277.603 137.613 277.552 137.684C277.501 137.755 277.339 137.988 274.953 137.988Z" fill="#231F20"/>
<path d="M239.438 136.019L233.836 148.686L237.074 152.401L240.687 148.686V134.903L239.438 136.019Z" fill="#231F20"/>
<path d="M230.283 127.544L271.411 131.898L270.234 139.318C270.234 139.318 236.739 140.099 228.507 137.471" fill="white"/>
<path d="M259.099 139.937C248.553 139.937 233.612 139.622 228.355 137.958C228.288 137.938 228.226 137.905 228.172 137.861C228.118 137.817 228.073 137.763 228.04 137.701C228.007 137.64 227.987 137.573 227.98 137.504C227.973 137.435 227.979 137.365 227.999 137.298C228.019 137.231 228.052 137.169 228.096 137.115C228.14 137.061 228.194 137.017 228.256 136.984C228.317 136.951 228.384 136.93 228.453 136.923C228.523 136.916 228.592 136.923 228.659 136.943C236.272 139.358 265.899 138.851 269.797 138.77L270.812 132.294L230.212 128.001C230.145 127.994 230.081 127.974 230.022 127.943C229.963 127.911 229.911 127.868 229.868 127.816C229.826 127.764 229.794 127.705 229.775 127.64C229.755 127.576 229.749 127.509 229.755 127.442C229.762 127.376 229.782 127.311 229.813 127.252C229.845 127.193 229.888 127.141 229.94 127.098C229.992 127.056 230.051 127.024 230.116 127.005C230.18 126.985 230.247 126.979 230.314 126.986L271.452 131.34C271.589 131.36 271.713 131.433 271.797 131.543C271.839 131.597 271.869 131.659 271.887 131.725C271.904 131.792 271.908 131.861 271.898 131.929L270.721 139.348C270.702 139.467 270.641 139.574 270.55 139.652C270.459 139.73 270.343 139.774 270.223 139.775C269.746 139.805 265.148 139.937 259.099 139.937Z" fill="#231F20"/>
<path d="M150.078 69.77H152.595V86.01H161.111V88.3445H150.078V69.77Z" fill="#D1D3D4"/>
<path d="M162.471 82.1327C162.465 81.26 162.641 80.3958 162.989 79.5952C163.323 78.8359 163.798 78.147 164.389 77.5652C164.981 76.9568 165.684 76.4675 166.46 76.1239C167.258 75.7802 168.116 75.5974 168.985 75.5859C169.855 75.5744 170.717 75.7345 171.524 76.0569C172.331 76.3794 173.067 76.8579 173.689 77.465C174.311 78.0722 174.807 78.796 175.148 79.5952C175.819 81.2203 175.819 83.0451 175.148 84.6702C174.825 85.4353 174.348 86.1261 173.748 86.7002C173.144 87.2953 172.43 87.7676 171.647 88.0907C169.984 88.7672 168.123 88.7672 166.46 88.0907C165.707 87.7766 165.019 87.3258 164.43 86.7611C163.83 86.187 163.353 85.4962 163.029 84.7311C162.662 83.9142 162.471 83.0285 162.471 82.1327ZM164.988 82.1327C164.983 82.7274 165.083 83.3183 165.283 83.8785C165.452 84.3806 165.726 84.8411 166.086 85.2295C166.447 85.6179 166.885 85.9255 167.373 86.1318C168.466 86.5785 169.691 86.5785 170.784 86.1318C171.27 85.9304 171.706 85.6256 172.063 85.2386C172.426 84.8473 172.703 84.3839 172.875 83.8785C173.267 82.7511 173.267 81.5244 172.875 80.397C172.703 79.8916 172.426 79.4281 172.063 79.0369C171.706 78.6499 171.27 78.3451 170.784 78.1437C169.691 77.697 168.466 77.697 167.373 78.1437C166.885 78.35 166.447 78.6575 166.086 79.046C165.726 79.4344 165.452 79.8949 165.283 80.397C165.084 80.954 164.984 81.5414 164.988 82.1327V82.1327Z" fill="#D1D3D4"/>
<path d="M178.691 77.4434C179.359 76.8321 180.147 76.3656 181.005 76.0732C181.846 75.7742 182.731 75.6198 183.624 75.6164C184.418 75.6004 185.21 75.7135 185.968 75.9514C186.561 76.1507 187.11 76.4645 187.582 76.875C187.986 77.2391 188.302 77.6903 188.506 78.1945C188.709 78.6903 188.813 79.2216 188.81 79.7576V86.0912C188.81 86.5277 188.81 86.9337 188.81 87.2991C188.81 87.6645 188.81 88.0197 188.881 88.3141H186.79C186.74 87.6848 186.709 87.0555 186.709 86.4363C186.263 87.1661 185.619 87.754 184.852 88.1314C184.066 88.4779 183.214 88.6477 182.355 88.6287C181.798 88.6352 181.244 88.5565 180.711 88.3953C180.208 88.2519 179.739 88.0104 179.33 87.6848C178.939 87.3713 178.62 86.9765 178.396 86.5277C178.165 86.0218 178.05 85.4701 178.061 84.9138C178.031 84.1983 178.218 83.4903 178.599 82.8838C178.971 82.3307 179.473 81.8776 180.061 81.5643C180.743 81.2002 181.48 80.9499 182.243 80.8234C183.122 80.6734 184.011 80.5987 184.903 80.6001H186.628V80.123C186.626 79.7997 186.564 79.4796 186.445 79.1791C186.321 78.8612 186.135 78.5713 185.897 78.3265C185.636 78.06 185.321 77.8524 184.974 77.7175C184.554 77.5662 184.11 77.494 183.664 77.5043C183.265 77.4987 182.866 77.5396 182.477 77.6261C182.156 77.7098 181.844 77.8219 181.543 77.9611C181.275 78.0891 181.02 78.242 180.782 78.4178L180.132 78.9152L178.691 77.4434ZM185.349 82.3763C184.776 82.3772 184.204 82.4077 183.634 82.4677C183.089 82.5156 182.553 82.635 182.04 82.8229C181.593 82.9714 181.187 83.2215 180.853 83.5537C180.7 83.7148 180.582 83.9045 180.503 84.1119C180.425 84.3192 180.388 84.54 180.396 84.7616C180.371 85.0592 180.425 85.3581 180.551 85.6287C180.678 85.8993 180.873 86.1322 181.117 86.3044C181.711 86.6452 182.391 86.8073 183.076 86.7713C183.641 86.7897 184.204 86.6786 184.72 86.4465C185.15 86.2518 185.528 85.96 185.826 85.5939C186.103 85.2493 186.306 84.8522 186.425 84.4266C186.545 84.0143 186.606 83.5872 186.608 83.1579V82.3763H185.349Z" fill="#D1D3D4"/>
<path d="M204.695 88.3445H202.33V86.5683H202.279C201.807 87.2455 201.158 87.7793 200.402 88.1111C199.636 88.471 198.801 88.6581 197.955 88.6592C197.061 88.6736 196.173 88.5043 195.347 88.1618C194.575 87.8563 193.881 87.381 193.317 86.7713C192.765 86.184 192.334 85.4944 192.048 84.7413C191.74 83.9208 191.588 83.0497 191.602 82.1733C191.59 81.2937 191.741 80.4195 192.048 79.5952C192.334 78.8421 192.765 78.1524 193.317 77.5652C193.888 76.9683 194.58 76.501 195.347 76.195C196.173 75.8524 197.061 75.6832 197.955 75.6976C198.826 75.6916 199.686 75.8825 200.473 76.2559C201.205 76.5899 201.83 77.1205 202.279 77.7885H202.33V68.6535H204.695V88.3445ZM198.24 86.4667C198.825 86.4754 199.406 86.3613 199.945 86.1318C200.432 85.9278 200.872 85.6235 201.234 85.2386C201.594 84.8447 201.87 84.3821 202.046 83.8785C202.425 82.749 202.425 81.5266 202.046 80.3971C201.87 79.8935 201.594 79.4308 201.234 79.0369C200.872 78.652 200.432 78.3477 199.945 78.1438C199.406 77.9142 198.825 77.8001 198.24 77.8088C197.657 77.7975 197.079 77.9118 196.545 78.1438C196.055 78.345 195.616 78.6497 195.256 79.0369C194.896 79.4308 194.62 79.8935 194.444 80.3971C194.064 81.5266 194.064 82.749 194.444 83.8785C194.62 84.3821 194.896 84.8447 195.256 85.2386C195.616 85.6259 196.055 85.9306 196.545 86.1318C197.079 86.3638 197.657 86.478 198.24 86.4667V86.4667Z" fill="#D1D3D4"/>
<path d="M207.882 71.4752C207.898 71.0227 208.086 70.5934 208.409 70.276C208.732 69.9587 209.165 69.7776 209.618 69.77C210.076 69.7753 210.513 69.9602 210.836 70.2849C211.158 70.6095 211.341 71.0479 211.343 71.5057C211.341 71.9625 211.158 72.3998 210.835 72.7228C210.512 73.0459 210.075 73.2285 209.618 73.2312C209.16 73.2285 208.722 73.0462 208.397 72.7235C208.072 72.4007 207.887 71.9634 207.882 71.5057V71.4752ZM208.44 75.9311H210.795V88.3445H208.44V75.9311Z" fill="#D1D3D4"/>
<path d="M214.541 75.931H216.905V77.89H216.956C217.282 77.199 217.823 76.6325 218.499 76.2761C219.279 75.8589 220.152 75.6492 221.037 75.6671C221.623 75.6656 222.205 75.7582 222.762 75.9412C223.298 76.1179 223.79 76.4088 224.203 76.7938C224.648 77.2058 224.995 77.7121 225.218 78.2757C225.48 78.9552 225.608 79.6791 225.594 80.4072V88.3445H223.229V81.0162C223.24 80.5123 223.161 80.0105 222.995 79.5343C222.863 79.154 222.648 78.8075 222.366 78.5193C222.105 78.2782 221.797 78.0919 221.463 77.9712C221.119 77.858 220.759 77.7997 220.397 77.7986C219.932 77.7943 219.471 77.8769 219.037 78.0422C218.618 78.1995 218.243 78.4534 217.941 78.7832C217.609 79.1622 217.357 79.604 217.2 80.0824C217.004 80.6855 216.904 81.3158 216.905 81.95V88.3445H214.541V75.931Z" fill="#D1D3D4"/>
<path d="M241.57 88.243C241.582 89.1263 241.416 90.003 241.083 90.8211C240.772 91.5856 240.305 92.277 239.712 92.8511C239.074 93.4237 238.324 93.859 237.51 94.13C236.617 94.4466 235.676 94.6046 234.729 94.5969C233.623 94.6112 232.522 94.4431 231.471 94.0995C230.422 93.724 229.461 93.1367 228.649 92.374L230.253 90.344C230.823 90.9776 231.513 91.4916 232.283 91.8564C233.048 92.2024 233.879 92.3757 234.719 92.3639C235.461 92.39 236.2 92.2621 236.891 91.9883C237.421 91.7578 237.893 91.4109 238.271 90.9733C238.607 90.57 238.853 90.0993 238.992 89.5929C239.132 89.0872 239.204 88.5648 239.205 88.04V86.3043H239.124C238.691 87.0337 238.047 87.6142 237.277 87.9689C236.506 88.324 235.668 88.5075 234.82 88.5069C233.954 88.5141 233.095 88.3485 232.293 88.0197C231.544 87.7134 230.865 87.2588 230.296 86.6831C229.727 86.1075 229.281 85.4228 228.984 84.6702C228.662 83.8631 228.5 83.0014 228.507 82.1327C228.502 81.2636 228.654 80.4007 228.954 79.585C229.238 78.8311 229.669 78.1411 230.222 77.555C230.789 76.9486 231.482 76.4739 232.252 76.1645C233.075 75.8219 233.96 75.6526 234.851 75.6671C235.7 75.668 236.538 75.8551 237.307 76.2152C238.06 76.5472 238.706 77.0812 239.175 77.758H239.235V75.931H241.57V88.243ZM235.125 77.8088C234.539 77.8001 233.958 77.9142 233.419 78.1437C232.931 78.35 232.493 78.6576 232.132 79.046C231.772 79.4344 231.498 79.8949 231.329 80.397C231.13 80.954 231.03 81.5414 231.034 82.1327C231.006 82.6884 231.09 83.244 231.28 83.767C231.47 84.2899 231.762 84.7695 232.141 85.1777C232.962 85.9096 234.024 86.314 235.125 86.314C236.225 86.314 237.287 85.9096 238.109 85.1777C238.485 84.7683 238.777 84.2884 238.966 83.7658C239.156 83.2432 239.241 82.6881 239.215 82.1327C239.219 81.5414 239.119 80.954 238.921 80.397C238.749 79.8916 238.472 79.4281 238.109 79.0369C237.752 78.6499 237.316 78.3451 236.83 78.1437C236.288 77.9128 235.704 77.7987 235.115 77.8088H235.125Z" fill="#D1D3D4"/>
<path d="M246.98 88.5069C246.544 88.4735 246.136 88.2767 245.839 87.9558C245.542 87.635 245.377 87.2137 245.377 86.7763C245.377 86.339 245.542 85.9177 245.839 85.5969C246.136 85.276 246.544 85.0792 246.98 85.0458C247.416 85.0792 247.823 85.276 248.121 85.5969C248.418 85.9177 248.583 86.339 248.583 86.7763C248.583 87.2137 248.418 87.635 248.121 87.9558C247.823 88.2767 247.416 88.4735 246.98 88.5069Z" fill="#D1D3D4"/>
<path d="M254.268 88.5069C253.832 88.4735 253.424 88.2767 253.127 87.9558C252.83 87.635 252.665 87.2137 252.665 86.7763C252.665 86.339 252.83 85.9177 253.127 85.5969C253.424 85.276 253.832 85.0792 254.268 85.0458C254.704 85.0792 255.111 85.276 255.408 85.5969C255.706 85.9177 255.871 86.339 255.871 86.7763C255.871 87.2137 255.706 87.635 255.408 87.9558C255.111 88.2767 254.704 88.4735 254.268 88.5069V88.5069Z" fill="#D1D3D4"/>
<path d="M261.555 88.5069C261.119 88.4735 260.712 88.2767 260.415 87.9558C260.117 87.635 259.952 87.2137 259.952 86.7763C259.952 86.339 260.117 85.9177 260.415 85.5969C260.712 85.276 261.119 85.0792 261.555 85.0458C261.991 85.0792 262.399 85.276 262.696 85.5969C262.993 85.9177 263.158 86.339 263.158 86.7763C263.158 87.2137 262.993 87.635 262.696 87.9558C262.399 88.2767 261.991 88.4735 261.555 88.5069Z" fill="#D1D3D4"/>
</svg>
