<svg width="127" height="34" viewBox="0 0 127 34" fill="none" xmlns="http://www.w3.org/2000/svg">
<path d="M29.18 16.64C29.54 16.0533 30.0067 15.5933 30.58 15.26C31.1667 14.9267 31.8333 14.76 32.58 14.76V17.7H31.84C30.96 17.7 30.2933 17.9067 29.84 18.32C29.4 18.7333 29.18 19.4533 29.18 20.48V26H26.38V14.92H29.18V16.64ZM33.7459 20.42C33.7459 19.3 33.9659 18.3067 34.4059 17.44C34.8593 16.5733 35.4659 15.9067 36.2259 15.44C36.9993 14.9733 37.8593 14.74 38.8059 14.74C39.6326 14.74 40.3526 14.9067 40.9659 15.24C41.5926 15.5733 42.0926 15.9933 42.4659 16.5V14.92H45.2859V26H42.4659V24.38C42.1059 24.9 41.6059 25.3333 40.9659 25.68C40.3393 26.0133 39.6126 26.18 38.7859 26.18C37.8526 26.18 36.9993 25.94 36.2259 25.46C35.4659 24.98 34.8593 24.3067 34.4059 23.44C33.9659 22.56 33.7459 21.5533 33.7459 20.42ZM42.4659 20.46C42.4659 19.78 42.3326 19.2 42.0659 18.72C41.7993 18.2267 41.4393 17.8533 40.9859 17.6C40.5326 17.3333 40.0459 17.2 39.5259 17.2C39.0059 17.2 38.5259 17.3267 38.0859 17.58C37.6459 17.8333 37.2859 18.2067 37.0059 18.7C36.7393 19.18 36.6059 19.7533 36.6059 20.42C36.6059 21.0867 36.7393 21.6733 37.0059 22.18C37.2859 22.6733 37.6459 23.0533 38.0859 23.32C38.5393 23.5867 39.0193 23.72 39.5259 23.72C40.0459 23.72 40.5326 23.5933 40.9859 23.34C41.4393 23.0733 41.7993 22.7 42.0659 22.22C42.3326 21.7267 42.4659 21.14 42.4659 20.46ZM54.1606 14.76C55.4806 14.76 56.5473 15.18 57.3606 16.02C58.174 16.8467 58.5806 18.0067 58.5806 19.5V26H55.7806V19.88C55.7806 19 55.5606 18.3267 55.1206 17.86C54.6806 17.38 54.0806 17.14 53.3206 17.14C52.5473 17.14 51.934 17.38 51.4806 17.86C51.0406 18.3267 50.8206 19 50.8206 19.88V26H48.0206V14.92H50.8206V16.3C51.194 15.82 51.6673 15.4467 52.2406 15.18C52.8273 14.9 53.4673 14.76 54.1606 14.76ZM60.5233 20.42C60.5233 19.3 60.7433 18.3067 61.1833 17.44C61.6366 16.5733 62.2499 15.9067 63.0233 15.44C63.7966 14.9733 64.6566 14.74 65.6033 14.74C66.3233 14.74 67.0099 14.9 67.6633 15.22C68.3166 15.5267 68.8366 15.94 69.2233 16.46V11.2H72.0633V26H69.2233V24.36C68.8766 24.9067 68.3899 25.3467 67.7633 25.68C67.1366 26.0133 66.4099 26.18 65.5833 26.18C64.6499 26.18 63.7966 25.94 63.0233 25.46C62.2499 24.98 61.6366 24.3067 61.1833 23.44C60.7433 22.56 60.5233 21.5533 60.5233 20.42ZM69.2433 20.46C69.2433 19.78 69.1099 19.2 68.8433 18.72C68.5766 18.2267 68.2166 17.8533 67.7633 17.6C67.3099 17.3333 66.8233 17.2 66.3033 17.2C65.7833 17.2 65.3033 17.3267 64.8633 17.58C64.4233 17.8333 64.0633 18.2067 63.7833 18.7C63.5166 19.18 63.3833 19.7533 63.3833 20.42C63.3833 21.0867 63.5166 21.6733 63.7833 22.18C64.0633 22.6733 64.4233 23.0533 64.8633 23.32C65.3166 23.5867 65.7966 23.72 66.3033 23.72C66.8233 23.72 67.3099 23.5933 67.7633 23.34C68.2166 23.0733 68.5766 22.7 68.8433 22.22C69.1099 21.7267 69.2433 21.14 69.2433 20.46Z" fill="white"/>
<path d="M79.718 26.18C78.6513 26.18 77.6913 25.9467 76.838 25.48C75.9846 25 75.3113 24.3267 74.818 23.46C74.338 22.5933 74.098 21.5933 74.098 20.46C74.098 19.3267 74.3446 18.3267 74.838 17.46C75.3446 16.5933 76.0313 15.9267 76.898 15.46C77.7646 14.98 78.7313 14.74 79.798 14.74C80.8646 14.74 81.8313 14.98 82.698 15.46C83.5646 15.9267 84.2446 16.5933 84.738 17.46C85.2446 18.3267 85.498 19.3267 85.498 20.46C85.498 21.5933 85.238 22.5933 84.718 23.46C84.2113 24.3267 83.518 25 82.638 25.48C81.7713 25.9467 80.798 26.18 79.718 26.18ZM79.718 23.74C80.2246 23.74 80.698 23.62 81.138 23.38C81.5913 23.1267 81.9513 22.7533 82.218 22.26C82.4846 21.7667 82.618 21.1667 82.618 20.46C82.618 19.4067 82.338 18.6 81.778 18.04C81.2313 17.4667 80.558 17.18 79.758 17.18C78.958 17.18 78.2846 17.4667 77.738 18.04C77.2046 18.6 76.938 19.4067 76.938 20.46C76.938 21.5133 77.198 22.3267 77.718 22.9C78.2513 23.46 78.918 23.74 79.718 23.74ZM101.312 14.76C102.672 14.76 103.765 15.18 104.592 16.02C105.432 16.8467 105.852 18.0067 105.852 19.5V26H103.052V19.88C103.052 19.0133 102.832 18.3533 102.392 17.9C101.952 17.4333 101.352 17.2 100.592 17.2C99.8319 17.2 99.2252 17.4333 98.7719 17.9C98.3319 18.3533 98.1119 19.0133 98.1119 19.88V26H95.3119V19.88C95.3119 19.0133 95.0919 18.3533 94.6519 17.9C94.2119 17.4333 93.6119 17.2 92.8519 17.2C92.0785 17.2 91.4652 17.4333 91.0119 17.9C90.5719 18.3533 90.3519 19.0133 90.3519 19.88V26H87.5519V14.92H90.3519V16.26C90.7119 15.7933 91.1719 15.4267 91.7319 15.16C92.3052 14.8933 92.9319 14.76 93.6119 14.76C94.4785 14.76 95.2519 14.9467 95.9319 15.32C96.6119 15.68 97.1385 16.2 97.5119 16.88C97.8719 16.24 98.3919 15.7267 99.0719 15.34C99.7652 14.9533 100.512 14.76 101.312 14.76ZM109.929 13.6C109.436 13.6 109.022 13.4467 108.689 13.14C108.369 12.82 108.209 12.4267 108.209 11.96C108.209 11.4933 108.369 11.1067 108.689 10.8C109.022 10.48 109.436 10.32 109.929 10.32C110.422 10.32 110.829 10.48 111.149 10.8C111.482 11.1067 111.649 11.4933 111.649 11.96C111.649 12.4267 111.482 12.82 111.149 13.14C110.829 13.4467 110.422 13.6 109.929 13.6ZM111.309 14.92V26H108.509V14.92H111.309ZM113.355 20.44C113.355 19.3333 113.582 18.3533 114.035 17.5C114.502 16.6333 115.129 15.96 115.915 15.48C116.702 15 117.569 14.76 118.515 14.76C119.302 14.76 119.995 14.9133 120.595 15.22C121.209 15.5133 121.702 15.8933 122.075 16.36V14.92H124.895V31.28H122.075V24.48C121.702 24.96 121.202 25.36 120.575 25.68C119.949 26 119.242 26.16 118.455 26.16C117.522 26.16 116.662 25.92 115.875 25.44C115.102 24.9467 114.489 24.2667 114.035 23.4C113.582 22.5333 113.355 21.5467 113.355 20.44ZM122.075 20.46C122.075 19.78 121.935 19.1933 121.655 18.7C121.375 18.2067 121.009 17.8333 120.555 17.58C120.115 17.3267 119.642 17.2 119.135 17.2C118.642 17.2 118.169 17.3267 117.715 17.58C117.275 17.8333 116.915 18.2067 116.635 18.7C116.355 19.18 116.215 19.76 116.215 20.44C116.215 21.12 116.355 21.7133 116.635 22.22C116.915 22.7133 117.275 23.0867 117.715 23.34C118.169 23.5933 118.642 23.72 119.135 23.72C119.642 23.72 120.115 23.5933 120.555 23.34C121.009 23.0867 121.375 22.7133 121.655 22.22C121.935 21.7267 122.075 21.14 122.075 20.46Z" fill="#FFC300"/>
<path d="M17.0714 11.7143L2.22449 7.73468V25.7959L17.0714 31V11.7143Z" fill="#FFC300" fill-opacity="0.8" stroke="black"/>
<path d="M17.2245 11.7143L2.22449 7.58163L17.6837 3.7551L31.9184 7.88775L17.2245 11.7143Z" fill="#FFC300" fill-opacity="0.8" stroke="black"/>
<path d="M17.3918 9.57143L1 5.12088L17.8935 1L33.449 5.45055L17.3918 9.57143Z" fill="#FFC300" fill-opacity="0.8" stroke="black"/>
</svg>
