<svg width="144" height="32" viewBox="0 0 144 32" fill="none" xmlns="http://www.w3.org/2000/svg">
<path d="M46.18 13.64C46.54 13.0533 47.0067 12.5933 47.58 12.26C48.1667 11.9267 48.8333 11.76 49.58 11.76V14.7H48.84C47.96 14.7 47.2933 14.9067 46.84 15.32C46.4 15.7333 46.18 16.4533 46.18 17.48V23H43.38V11.92H46.18V13.64ZM50.7459 17.42C50.7459 16.3 50.9659 15.3067 51.4059 14.44C51.8593 13.5733 52.4659 12.9067 53.2259 12.44C53.9993 11.9733 54.8593 11.74 55.8059 11.74C56.6326 11.74 57.3526 11.9067 57.9659 12.24C58.5926 12.5733 59.0926 12.9933 59.4659 13.5V11.92H62.2859V23H59.4659V21.38C59.1059 21.9 58.6059 22.3333 57.9659 22.68C57.3393 23.0133 56.6126 23.18 55.7859 23.18C54.8526 23.18 53.9993 22.94 53.2259 22.46C52.4659 21.98 51.8593 21.3067 51.4059 20.44C50.9659 19.56 50.7459 18.5533 50.7459 17.42ZM59.4659 17.46C59.4659 16.78 59.3326 16.2 59.0659 15.72C58.7993 15.2267 58.4393 14.8533 57.9859 14.6C57.5326 14.3333 57.0459 14.2 56.5259 14.2C56.0059 14.2 55.5259 14.3267 55.0859 14.58C54.6459 14.8333 54.2859 15.2067 54.0059 15.7C53.7393 16.18 53.6059 16.7533 53.6059 17.42C53.6059 18.0867 53.7393 18.6733 54.0059 19.18C54.2859 19.6733 54.6459 20.0533 55.0859 20.32C55.5393 20.5867 56.0193 20.72 56.5259 20.72C57.0459 20.72 57.5326 20.5933 57.9859 20.34C58.4393 20.0733 58.7993 19.7 59.0659 19.22C59.3326 18.7267 59.4659 18.14 59.4659 17.46ZM71.1606 11.76C72.4806 11.76 73.5473 12.18 74.3606 13.02C75.174 13.8467 75.5806 15.0067 75.5806 16.5V23H72.7806V16.88C72.7806 16 72.5606 15.3267 72.1206 14.86C71.6806 14.38 71.0806 14.14 70.3206 14.14C69.5473 14.14 68.934 14.38 68.4806 14.86C68.0406 15.3267 67.8206 16 67.8206 16.88V23H65.0206V11.92H67.8206V13.3C68.194 12.82 68.6673 12.4467 69.2406 12.18C69.8273 11.9 70.4673 11.76 71.1606 11.76ZM77.5233 17.42C77.5233 16.3 77.7433 15.3067 78.1833 14.44C78.6366 13.5733 79.2499 12.9067 80.0233 12.44C80.7966 11.9733 81.6566 11.74 82.6033 11.74C83.3233 11.74 84.0099 11.9 84.6633 12.22C85.3166 12.5267 85.8366 12.94 86.2233 13.46V8.2H89.0633V23H86.2233V21.36C85.8766 21.9067 85.3899 22.3467 84.7633 22.68C84.1366 23.0133 83.4099 23.18 82.5833 23.18C81.6499 23.18 80.7966 22.94 80.0233 22.46C79.2499 21.98 78.6366 21.3067 78.1833 20.44C77.7433 19.56 77.5233 18.5533 77.5233 17.42ZM86.2433 17.46C86.2433 16.78 86.1099 16.2 85.8433 15.72C85.5766 15.2267 85.2166 14.8533 84.7633 14.6C84.3099 14.3333 83.8233 14.2 83.3033 14.2C82.7833 14.2 82.3033 14.3267 81.8633 14.58C81.4233 14.8333 81.0633 15.2067 80.7833 15.7C80.5166 16.18 80.3833 16.7533 80.3833 17.42C80.3833 18.0867 80.5166 18.6733 80.7833 19.18C81.0633 19.6733 81.4233 20.0533 81.8633 20.32C82.3166 20.5867 82.7966 20.72 83.3033 20.72C83.8233 20.72 84.3099 20.5933 84.7633 20.34C85.2166 20.0733 85.5766 19.7 85.8433 19.22C86.1099 18.7267 86.2433 18.14 86.2433 17.46Z" fill="black"/>
<path d="M96.718 23.18C95.6513 23.18 94.6913 22.9467 93.838 22.48C92.9846 22 92.3113 21.3267 91.818 20.46C91.338 19.5933 91.098 18.5933 91.098 17.46C91.098 16.3267 91.3446 15.3267 91.838 14.46C92.3446 13.5933 93.0313 12.9267 93.898 12.46C94.7646 11.98 95.7313 11.74 96.798 11.74C97.8646 11.74 98.8313 11.98 99.698 12.46C100.565 12.9267 101.245 13.5933 101.738 14.46C102.245 15.3267 102.498 16.3267 102.498 17.46C102.498 18.5933 102.238 19.5933 101.718 20.46C101.211 21.3267 100.518 22 99.638 22.48C98.7713 22.9467 97.798 23.18 96.718 23.18ZM96.718 20.74C97.2246 20.74 97.698 20.62 98.138 20.38C98.5913 20.1267 98.9513 19.7533 99.218 19.26C99.4846 18.7667 99.618 18.1667 99.618 17.46C99.618 16.4067 99.338 15.6 98.778 15.04C98.2313 14.4667 97.558 14.18 96.758 14.18C95.958 14.18 95.2846 14.4667 94.738 15.04C94.2046 15.6 93.938 16.4067 93.938 17.46C93.938 18.5133 94.198 19.3267 94.718 19.9C95.2513 20.46 95.918 20.74 96.718 20.74ZM118.312 11.76C119.672 11.76 120.765 12.18 121.592 13.02C122.432 13.8467 122.852 15.0067 122.852 16.5V23H120.052V16.88C120.052 16.0133 119.832 15.3533 119.392 14.9C118.952 14.4333 118.352 14.2 117.592 14.2C116.832 14.2 116.225 14.4333 115.772 14.9C115.332 15.3533 115.112 16.0133 115.112 16.88V23H112.312V16.88C112.312 16.0133 112.092 15.3533 111.652 14.9C111.212 14.4333 110.612 14.2 109.852 14.2C109.079 14.2 108.465 14.4333 108.012 14.9C107.572 15.3533 107.352 16.0133 107.352 16.88V23H104.552V11.92H107.352V13.26C107.712 12.7933 108.172 12.4267 108.732 12.16C109.305 11.8933 109.932 11.76 110.612 11.76C111.479 11.76 112.252 11.9467 112.932 12.32C113.612 12.68 114.139 13.2 114.512 13.88C114.872 13.24 115.392 12.7267 116.072 12.34C116.765 11.9533 117.512 11.76 118.312 11.76ZM126.929 10.6C126.436 10.6 126.022 10.4467 125.689 10.14C125.369 9.82 125.209 9.42667 125.209 8.96C125.209 8.49333 125.369 8.10667 125.689 7.8C126.022 7.48 126.436 7.32 126.929 7.32C127.422 7.32 127.829 7.48 128.149 7.8C128.482 8.10667 128.649 8.49333 128.649 8.96C128.649 9.42667 128.482 9.82 128.149 10.14C127.829 10.4467 127.422 10.6 126.929 10.6ZM128.309 11.92V23H125.509V11.92H128.309ZM130.355 17.44C130.355 16.3333 130.582 15.3533 131.035 14.5C131.502 13.6333 132.129 12.96 132.915 12.48C133.702 12 134.569 11.76 135.515 11.76C136.302 11.76 136.995 11.9133 137.595 12.22C138.209 12.5133 138.702 12.8933 139.075 13.36V11.92H141.895V28.28H139.075V21.48C138.702 21.96 138.202 22.36 137.575 22.68C136.949 23 136.242 23.16 135.455 23.16C134.522 23.16 133.662 22.92 132.875 22.44C132.102 21.9467 131.489 21.2667 131.035 20.4C130.582 19.5333 130.355 18.5467 130.355 17.44ZM139.075 17.46C139.075 16.78 138.935 16.1933 138.655 15.7C138.375 15.2067 138.009 14.8333 137.555 14.58C137.115 14.3267 136.642 14.2 136.135 14.2C135.642 14.2 135.169 14.3267 134.715 14.58C134.275 14.8333 133.915 15.2067 133.635 15.7C133.355 16.18 133.215 16.76 133.215 17.44C133.215 18.12 133.355 18.7133 133.635 19.22C133.915 19.7133 134.275 20.0867 134.715 20.34C135.169 20.5933 135.642 20.72 136.135 20.72C136.642 20.72 137.115 20.5933 137.555 20.34C138.009 20.0867 138.375 19.7133 138.655 19.22C138.935 18.7267 139.075 18.14 139.075 17.46Z" fill="#FFC300"/>
<path d="M17.0714 11.7143L2.22449 7.73468V25.7959L17.0714 31V11.7143Z" fill="#FFC300" fill-opacity="0.8" stroke="black"/>
<path d="M17.2245 11.7143L32.0714 7.73468V25.7959L17.2245 31V11.7143Z" fill="#FFC300" fill-opacity="0.8" stroke="black"/>
<path d="M17.2245 11.7143L2.22449 7.58166L17.6837 3.75513L31.9184 7.88778L17.2245 11.7143Z" fill="#FFC300" fill-opacity="0.8" stroke="black"/>
<path d="M17.3918 9.57143L1 5.12088L17.8935 1L33.449 5.45055L17.3918 9.57143Z" fill="#FFC300" fill-opacity="0.8" stroke="black"/>
</svg>
