<svg width="406" height="306" viewBox="0 0 406 306" fill="none" xmlns="http://www.w3.org/2000/svg">
<path d="M314.386 232.769H91.6139C91.4793 232.769 91.3502 232.715 91.255 232.62C91.1599 232.525 91.1064 232.396 91.1064 232.261C91.1064 232.127 91.1599 231.998 91.255 231.902C91.3502 231.807 91.4793 231.754 91.6139 231.754H314.386C314.521 231.754 314.65 231.807 314.745 231.902C314.84 231.998 314.894 232.127 314.894 232.261C314.894 232.396 314.84 232.525 314.745 232.62C314.65 232.715 314.521 232.769 314.386 232.769Z" fill="#D1D3D4"/>
<path d="M290.97 118.226H281.328V253.455H290.97V118.226Z" fill="white"/>
<path d="M290.97 253.962H281.328C281.193 253.962 281.064 253.909 280.969 253.813C280.874 253.718 280.82 253.589 280.82 253.455V118.226C280.82 118.092 280.874 117.962 280.969 117.867C281.064 117.772 281.193 117.719 281.328 117.719H290.97C291.104 117.721 291.231 117.776 291.326 117.87C291.421 117.965 291.475 118.092 291.478 118.226V253.485C291.47 253.614 291.413 253.736 291.319 253.824C291.224 253.913 291.1 253.962 290.97 253.962V253.962ZM281.835 252.947H290.463V118.734H281.835V252.947Z" fill="#D1D3D4"/>
<path d="M124.683 118.226H115.04V253.455H124.683V118.226Z" fill="white"/>
<path d="M124.672 253.962H115.03C114.895 253.962 114.766 253.909 114.671 253.813C114.576 253.718 114.522 253.589 114.522 253.455V118.226C114.525 118.092 114.579 117.965 114.674 117.87C114.769 117.776 114.896 117.721 115.03 117.719H124.672C124.807 117.719 124.936 117.772 125.031 117.867C125.126 117.962 125.18 118.092 125.18 118.226V253.485C125.172 253.614 125.115 253.736 125.021 253.824C124.927 253.913 124.802 253.962 124.672 253.962V253.962ZM115.537 252.947H124.165V118.734H115.537V252.947Z" fill="#D1D3D4"/>
<path d="M302.206 148.28H103.794V171.412H302.206V148.28Z" fill="white"/>
<path d="M302.206 171.92H103.794C103.659 171.92 103.53 171.866 103.435 171.771C103.34 171.676 103.286 171.547 103.286 171.412V148.28C103.286 148.146 103.34 148.017 103.435 147.921C103.53 147.826 103.659 147.773 103.794 147.773H302.206C302.341 147.773 302.47 147.826 302.565 147.921C302.66 148.017 302.714 148.146 302.714 148.28V171.412C302.714 171.547 302.66 171.676 302.565 171.771C302.47 171.866 302.341 171.92 302.206 171.92ZM104.281 170.905H301.699V148.788H104.301L104.281 170.905Z" fill="#D1D3D4"/>
<path d="M302.206 116.693H103.794V139.825H302.206V116.693Z" fill="white"/>
<path d="M302.206 140.333H103.794C103.659 140.333 103.53 140.279 103.435 140.184C103.34 140.089 103.286 139.96 103.286 139.825V116.693C103.286 116.559 103.34 116.43 103.435 116.335C103.53 116.239 103.659 116.186 103.794 116.186H302.206C302.341 116.186 302.47 116.239 302.565 116.335C302.66 116.43 302.714 116.559 302.714 116.693V139.805C302.716 139.873 302.705 139.942 302.681 140.005C302.657 140.069 302.62 140.128 302.572 140.177C302.525 140.226 302.468 140.266 302.405 140.292C302.342 140.319 302.274 140.333 302.206 140.333ZM104.281 139.318H301.699V117.201H104.301L104.281 139.318Z" fill="#D1D3D4"/>
<path d="M302.206 185.886H103.794V194.818H302.206V185.886Z" fill="white"/>
<path d="M302.206 195.325H103.794C103.659 195.325 103.53 195.272 103.435 195.177C103.34 195.082 103.286 194.953 103.286 194.818V185.886C103.286 185.751 103.34 185.622 103.435 185.527C103.53 185.432 103.659 185.378 103.794 185.378H302.206C302.341 185.378 302.47 185.432 302.565 185.527C302.66 185.622 302.714 185.751 302.714 185.886V194.818C302.714 194.953 302.66 195.082 302.565 195.177C302.47 195.272 302.341 195.325 302.206 195.325ZM104.281 194.31H301.699V186.393H104.301L104.281 194.31Z" fill="#D1D3D4"/>
<path d="M151.986 130.061L141.521 173.432C141.254 175.222 140.475 176.896 139.278 178.253C138.007 179.475 136.492 180.416 134.833 181.014C132.589 181.928 130.438 182.029 128.357 183.389C128.124 183.507 127.922 183.676 127.763 183.884C127.605 184.091 127.496 184.331 127.443 184.587C127.446 184.817 127.512 185.041 127.634 185.236C127.756 185.431 127.928 185.589 128.134 185.693C128.551 185.891 129.002 186.005 129.463 186.028C135.675 186.749 141.806 186.891 147.794 184.942C151.438 183.765 152.423 181.806 153.336 178.07L165.881 131.979" fill="white"/>
<path d="M136.964 187.053C134.439 187.036 131.917 186.866 129.412 186.546C128.88 186.52 128.358 186.385 127.88 186.15C127.584 186.001 127.337 185.771 127.166 185.487C126.996 185.203 126.909 184.877 126.916 184.546C126.974 184.213 127.108 183.897 127.307 183.622C127.505 183.348 127.764 183.122 128.063 182.963C129.334 182.166 130.736 181.599 132.204 181.288C133.028 181.087 133.838 180.833 134.63 180.527C136.221 179.952 137.676 179.053 138.903 177.888C140.034 176.594 140.767 175.001 141.014 173.3L151.479 129.939C151.511 129.805 151.595 129.688 151.713 129.616C151.831 129.544 151.973 129.521 152.108 129.554C152.242 129.586 152.359 129.67 152.431 129.788C152.503 129.906 152.526 130.048 152.494 130.183L142.029 173.554C141.744 175.439 140.919 177.202 139.654 178.629C138.326 179.899 136.751 180.88 135.025 181.511C134.191 181.833 133.336 182.101 132.468 182.313C131.116 182.594 129.824 183.109 128.651 183.836C128.367 184.029 127.981 184.323 127.961 184.627C127.972 184.759 128.018 184.885 128.092 184.993C128.167 185.102 128.269 185.189 128.387 185.247C128.746 185.408 129.131 185.501 129.524 185.521C134.924 186.15 141.288 186.536 147.632 184.455C151.002 183.359 151.925 181.643 152.818 177.959L165.374 131.847C165.42 131.724 165.51 131.622 165.627 131.561C165.744 131.501 165.879 131.486 166.007 131.521C166.134 131.555 166.244 131.636 166.314 131.747C166.385 131.858 166.412 131.992 166.389 132.121L153.833 178.213C152.879 182.131 151.803 184.221 147.957 185.45C144.399 186.557 140.69 187.098 136.964 187.053V187.053Z" fill="#231F20"/>
<path d="M242.717 232.261C242.717 232.261 243.275 251.252 244.554 251.343C245.833 251.435 271.868 261.118 274.192 258.235C276.222 255.738 274.953 249.902 270.264 248.268C263.748 245.984 258.916 239.742 258.916 239.742L258.317 227.359" fill="white"/>
<path d="M272.132 259.291C268.122 259.291 259.952 256.885 248.604 253.201C246.645 252.551 244.788 251.942 244.544 251.912C244.026 251.912 242.798 251.78 242.24 232.312C242.237 232.243 242.248 232.175 242.272 232.11C242.297 232.046 242.333 231.987 242.381 231.936C242.428 231.886 242.485 231.846 242.548 231.818C242.611 231.79 242.679 231.775 242.747 231.774C242.885 231.774 243.017 231.826 243.117 231.921C243.217 232.015 243.278 232.144 243.285 232.282C243.529 240.605 244.158 249.699 244.808 250.897C245.275 250.988 246.371 251.353 248.969 252.206C254.724 254.104 272.264 259.89 273.827 257.951C274.26 257.284 274.534 256.525 274.627 255.735C274.72 254.945 274.631 254.144 274.365 253.394C274.085 252.341 273.554 251.373 272.816 250.572C272.079 249.771 271.158 249.161 270.132 248.796C263.545 246.492 258.744 240.361 258.551 240.097C258.479 240.016 258.44 239.911 258.439 239.803L257.83 227.43C257.825 227.292 257.874 227.157 257.967 227.054C258.06 226.952 258.189 226.89 258.328 226.882C258.398 226.871 258.469 226.876 258.537 226.897C258.605 226.917 258.667 226.953 258.72 227C258.772 227.048 258.814 227.107 258.841 227.172C258.868 227.238 258.88 227.308 258.876 227.379L259.475 239.559C260.195 240.442 264.692 245.751 270.487 247.781C271.67 248.203 272.733 248.906 273.585 249.828C274.437 250.751 275.053 251.866 275.38 253.079C275.69 253.991 275.785 254.962 275.657 255.917C275.528 256.871 275.18 257.783 274.639 258.58C274.296 258.871 273.895 259.085 273.462 259.207C273.03 259.33 272.576 259.358 272.132 259.291V259.291Z" fill="#231F20"/>
<path d="M179.939 232.261C179.939 232.261 169.444 233.652 165.272 235.743C165.272 235.743 166.46 245.568 154.544 251.526C154.544 251.526 150.677 255.109 152.514 258.682C154.351 262.255 171.007 257.931 176.194 255.109C179.274 253.449 182.129 251.403 184.689 249.019L179.939 232.261Z" fill="white"/>
<path d="M156.645 260.59C155.662 260.616 154.68 260.496 153.732 260.235C153.37 260.149 153.029 259.991 152.731 259.769C152.433 259.548 152.183 259.267 151.996 258.946C150.047 255.058 154.026 251.333 154.189 251.171L154.31 251.09C165.739 245.375 164.765 235.925 164.755 235.865C164.739 235.756 164.758 235.646 164.809 235.549C164.861 235.453 164.941 235.375 165.039 235.327C169.241 233.226 179.432 231.855 179.868 231.805C179.993 231.786 180.12 231.813 180.225 231.883C180.33 231.952 180.405 232.058 180.437 232.18L185.146 248.917C185.172 249.007 185.173 249.102 185.148 249.192C185.123 249.281 185.073 249.362 185.004 249.425C182.419 251.86 179.525 253.945 176.397 255.627C172.611 257.626 162.613 260.59 156.645 260.59ZM154.848 251.993C154.422 252.409 151.448 255.505 152.93 258.479C153.058 258.671 153.222 258.837 153.413 258.966C153.605 259.094 153.82 259.184 154.047 259.23C158.543 260.651 171.626 256.997 175.899 254.673C178.83 253.071 181.556 251.121 184.019 248.867L179.523 232.87C177.493 233.155 169.505 234.383 165.79 236.088C165.84 237.973 165.515 239.85 164.836 241.609C163.75 244.583 161.111 248.806 154.848 251.962V251.993Z" fill="#231F20"/>
<path d="M175.839 158.511C175.839 158.511 150.372 169.24 145.876 183.886C141.603 197.802 162.867 239.711 162.867 239.711L181.238 236.666C181.238 236.666 171.535 194.737 172.357 192.585C173.179 190.433 192.129 184.983 203.223 185.835C214.317 186.688 234.78 190.342 234.78 190.342L241.255 237.468L262.489 234.423C262.489 234.423 259.84 180.405 252.238 169.321C244.635 158.237 226.863 157.009 226.863 157.009L175.839 158.511Z" fill="#231F20"/>
<path d="M162.867 240.29C162.772 240.289 162.679 240.262 162.599 240.212C162.518 240.162 162.453 240.09 162.41 240.006C161.547 238.29 141.095 197.731 145.389 183.785C147.287 177.593 152.971 171.382 162.268 165.322C166.528 162.555 171.001 160.132 175.646 158.075C175.706 158.061 175.768 158.061 175.828 158.075L226.822 156.583C227.614 156.583 245.041 157.933 252.654 169.108C260.266 180.283 262.885 232.17 262.997 234.362C263 234.487 262.958 234.609 262.877 234.705C262.797 234.8 262.684 234.863 262.56 234.88L241.326 237.976C241.261 237.987 241.194 237.985 241.129 237.97C241.064 237.954 241.003 237.926 240.95 237.886C240.897 237.846 240.852 237.795 240.819 237.737C240.786 237.68 240.765 237.616 240.758 237.549L234.333 190.788C231.542 190.291 213.323 187.124 203.193 186.343C192.028 185.49 173.514 191.052 172.824 192.788C172.317 194.554 177.899 219.98 181.736 236.636C181.763 236.772 181.738 236.914 181.665 237.032C181.624 237.089 181.573 237.137 181.514 237.174C181.455 237.21 181.388 237.235 181.32 237.245L162.948 240.29H162.867ZM175.95 159.09C174.336 159.79 150.575 170.255 146.353 184.12C142.394 197.041 161.172 235.296 163.151 239.265L180.67 236.332C178.792 228.212 171.078 194.534 171.921 192.412C172.936 189.814 192.586 184.516 203.304 185.307C214.297 186.15 234.709 189.784 234.912 189.824C235.017 189.842 235.114 189.893 235.189 189.97C235.264 190.046 235.312 190.145 235.328 190.25L241.732 236.869L262.032 233.916C261.738 228.648 258.906 179.887 251.882 169.575C244.554 158.816 227.055 157.496 226.883 157.486L175.95 159.09Z" fill="#231F20"/>
<path d="M217.88 89.1565C217.88 89.1565 169.87 88.0197 161.121 96.9822C152.372 105.945 148.535 136.029 148.535 136.029L168.317 141.754L172.377 126.854L175.788 158.511L226.842 157.06L224.071 125.412L242.717 119.505C242.717 119.505 233.45 93.3688 217.88 89.1565Z" fill="#FFC300"/>
<path d="M211.668 71.668C211.668 71.668 217.098 60.8177 215.038 57.9858C212.977 55.154 211.577 56.1791 211.567 56.1893C213.759 54.6059 211.15 51.3477 209.74 50.2414C208.629 49.43 207.395 48.8028 206.086 48.3839C202.883 47.1065 199.475 46.4187 196.027 46.3539C192.564 46.3078 189.186 47.4267 186.435 49.5309C182.223 52.9413 180.873 57.255 181.36 62.5229C181.685 66.2885 182.832 70.044 183.055 73.7386C187.369 74.1751 191.723 74.7536 196.098 74.8145C199.529 74.916 209.648 75.6874 211.668 71.668Z" fill="white"/>
<path d="M200.686 75.4743C199.387 75.4743 198.169 75.4743 197.154 75.3931H196.047C192.485 75.3018 188.942 74.9364 185.451 74.571L182.964 74.3172C182.839 74.3033 182.722 74.2458 182.635 74.1549C182.548 74.0641 182.496 73.9455 182.487 73.8198C182.327 71.8751 182.042 69.9427 181.634 68.0344C181.264 66.2431 180.986 64.434 180.802 62.6143C180.305 56.7882 181.989 52.4643 186.1 49.1757C188.944 46.9926 192.442 45.8339 196.027 45.8871C199.531 45.9458 202.997 46.6333 206.258 47.9171C207.631 48.3501 208.929 48.9938 210.105 49.8253C211.232 50.7083 213.008 52.7992 212.977 54.6364C212.972 54.9471 212.907 55.2539 212.785 55.5397C213.924 55.8948 214.892 56.6572 215.505 57.6814C217.626 60.5944 213.099 70.0339 212.176 71.8913C210.602 74.9668 205.172 75.4743 200.686 75.4743ZM183.502 73.2819L185.532 73.4951C188.973 73.8605 192.535 74.2259 196.047 74.3071H197.164C200.858 74.439 209.496 74.7435 211.181 71.394C213.292 67.131 215.951 60.1275 214.591 58.2599C213.231 56.3923 212.206 56.3517 211.841 56.575C211.726 56.6495 211.586 56.6764 211.452 56.6499C211.317 56.6234 211.198 56.5455 211.12 56.4329C211.081 56.3784 211.053 56.3166 211.038 56.2513C211.023 56.186 211.021 56.1183 211.033 56.0523C211.044 55.9862 211.068 55.923 211.104 55.8664C211.14 55.8098 211.187 55.7609 211.242 55.7224C211.433 55.5983 211.59 55.4283 211.698 55.2279C211.806 55.0275 211.862 54.8032 211.861 54.5755C211.861 53.2154 210.409 51.4087 209.394 50.6068C208.326 49.831 207.141 49.2313 205.883 48.8306C202.744 47.571 199.399 46.9034 196.017 46.8615C192.67 46.8057 189.402 47.8783 186.74 49.9065C182.923 53.0022 181.36 57.0115 181.827 62.4519C182.01 64.2309 182.285 65.9993 182.649 67.7502C183.031 69.5777 183.315 71.4242 183.502 73.2819V73.2819Z" fill="#231F20"/>
<path d="M206.796 73.1804C207.892 68.5216 215.809 67.9329 215.018 73.4646C214.819 75.394 213.946 77.1914 212.551 78.5396C211.844 79.1946 210.957 79.6244 210.005 79.7745C209.052 79.9245 208.077 79.7879 207.202 79.3821" fill="white"/>
<path d="M209.141 80.3666C208.381 80.3741 207.631 80.1927 206.958 79.8388C206.837 79.7722 206.746 79.6603 206.706 79.5273C206.666 79.3943 206.68 79.251 206.745 79.1283C206.776 79.066 206.82 79.0106 206.873 78.9658C206.926 78.9209 206.988 78.8874 207.054 78.8674C207.121 78.8474 207.191 78.8414 207.26 78.8496C207.329 78.8578 207.396 78.8801 207.456 78.9151C208.236 79.2629 209.1 79.3741 209.943 79.2352C210.786 79.0963 211.569 78.7133 212.196 78.1336C213.499 76.8705 214.314 75.1885 214.5 73.3834C214.754 71.5868 214.003 70.3384 212.47 70.0846C211.377 69.9097 210.258 70.1402 209.323 70.7328C208.389 71.3254 207.703 72.2392 207.395 73.3022C207.363 73.4368 207.278 73.553 207.16 73.6254C207.042 73.6977 206.9 73.7202 206.766 73.6879C206.631 73.6556 206.515 73.5711 206.442 73.4531C206.37 73.3351 206.348 73.1932 206.38 73.0586C206.744 71.7205 207.596 70.5674 208.769 69.827C209.941 69.0866 211.349 68.8128 212.713 69.0595C214.388 69.3741 216.033 70.7139 215.627 73.5356C215.406 75.5861 214.472 77.4939 212.988 78.9253C211.926 79.8618 210.556 80.3748 209.141 80.3666V80.3666Z" fill="#231F20"/>
<path d="M187.278 71.8C186.872 67.0295 179.158 65.2837 179.158 70.8764C179.077 72.8141 179.681 74.7184 180.863 76.2559C181.467 77.0036 182.279 77.5558 183.197 77.843C184.114 78.1302 185.096 78.1395 186.019 77.8697" fill="white"/>
<path d="M184.639 78.57C183.831 78.5525 183.036 78.3622 182.308 78.0121C181.579 77.662 180.934 77.1601 180.416 76.54C179.146 74.8973 178.496 72.8597 178.579 70.785C178.579 67.9329 180.416 66.8468 182.121 66.725C183.515 66.6966 184.869 67.1917 185.915 68.1124C186.962 69.0331 187.625 70.3126 187.775 71.6985C187.803 71.7745 187.813 71.856 187.805 71.9366C187.796 72.0172 187.769 72.0948 187.726 72.1633C187.683 72.2318 187.624 72.2894 187.555 72.3316C187.486 72.3739 187.408 72.3996 187.327 72.4069C187.246 72.4141 187.165 72.4027 187.089 72.3735C187.014 72.3443 186.946 72.298 186.891 72.2384C186.836 72.1787 186.796 72.1072 186.773 72.0294C186.75 71.9517 186.746 71.8697 186.76 71.7898C186.608 70.6853 186.056 69.6749 185.209 68.9507C184.361 68.2265 183.277 67.839 182.162 67.8618C180.558 67.9329 179.635 69.0088 179.625 70.8256C179.544 72.6502 180.104 74.4455 181.208 75.9006C181.744 76.5684 182.465 77.0632 183.281 77.3232C184.097 77.5832 184.972 77.5968 185.796 77.3622C185.93 77.3151 186.078 77.3234 186.207 77.3852C186.335 77.4471 186.434 77.5575 186.481 77.6921C186.528 77.8267 186.52 77.9745 186.458 78.103C186.396 78.2314 186.286 78.3301 186.151 78.3772C185.661 78.5267 185.15 78.5919 184.639 78.57V78.57Z" fill="#231F20"/>
<path d="M186.242 95.3683C186.948 96.8963 188.067 98.1959 189.474 99.1199C190.88 100.044 192.518 100.555 194.2 100.596C195.919 100.768 197.654 100.492 199.236 99.7947C200.817 99.0975 202.191 98.0026 203.223 96.6168V93.2977V85.5837V78.3772L189.115 77.3622L188.222 83.1883L187.937 85.0762L186.242 95.3683Z" fill="white"/>
<path d="M195.093 101.154C194.789 101.154 194.484 101.154 194.159 101.154C187.714 100.687 185.826 95.8047 185.745 95.5916C185.72 95.5055 185.72 95.4138 185.745 95.3277L188.506 77.3013C188.524 77.1701 188.592 77.051 188.696 76.9695C188.8 76.888 188.932 76.8504 189.064 76.8648L203.173 77.8798C203.304 77.8876 203.428 77.9456 203.519 78.0418C203.61 78.1381 203.66 78.2653 203.66 78.3975L203.771 96.6675C203.771 96.7679 203.743 96.8662 203.69 96.9517C202.7 98.2909 201.402 99.3719 199.905 100.103C198.409 100.835 196.758 101.195 195.093 101.154V101.154ZM186.76 95.3074C187.444 96.7112 188.503 97.8986 189.819 98.7386C191.136 99.5786 192.659 100.039 194.22 100.068C195.822 100.239 197.442 99.9966 198.924 99.364C200.406 98.7315 201.701 97.7297 202.685 96.4543L202.594 78.905L189.45 77.89L186.76 95.3074Z" fill="#231F20"/>
<path d="M187.826 85.0559C188.879 86.8637 190.369 88.3784 192.16 89.461C195.073 91.3692 199.478 93.5921 203.203 93.2977V85.5837C200.485 85.7216 197.759 85.541 195.083 85.0458C192.696 84.7771 190.365 84.1438 188.171 83.168L187.826 85.0559Z" fill="#231F20"/>
<path d="M202.523 93.8357C198.534 93.8357 194.2 91.3997 191.886 89.8873C190.021 88.7619 188.471 87.1839 187.379 85.2995C187.327 85.2033 187.31 85.0925 187.328 84.9848L187.602 83.0969C187.616 83.0176 187.648 82.9425 187.696 82.8774C187.743 82.8123 187.805 82.7589 187.877 82.7214C187.948 82.6865 188.026 82.6683 188.105 82.6683C188.184 82.6683 188.262 82.6865 188.333 82.7214C190.484 83.6717 192.767 84.2878 195.103 84.5484C197.749 85.0402 200.444 85.2207 203.132 85.0863C203.2 85.0793 203.27 85.0875 203.334 85.1103C203.399 85.1331 203.459 85.17 203.508 85.2183C203.559 85.2643 203.6 85.3206 203.628 85.3836C203.656 85.4466 203.67 85.5148 203.67 85.5837V93.2977C203.67 93.4256 203.622 93.5488 203.536 93.6429C203.449 93.737 203.33 93.795 203.203 93.8052C203 93.8255 202.767 93.8357 202.523 93.8357ZM188.313 84.9646C189.323 86.6221 190.715 88.0141 192.373 89.0246C194.18 90.202 198.666 92.8613 202.624 92.8004V86.1013C200.036 86.1906 197.446 85.9966 194.9 85.5228C192.695 85.2557 190.533 84.71 188.465 83.8988L188.313 84.9646Z" fill="#231F20"/>
<path d="M194.992 86.8017L196.25 86.893C197.671 86.9982 199.098 86.8224 200.45 86.3758C201.802 85.9292 203.054 85.2205 204.132 84.2901C205.21 83.3597 206.095 82.226 206.735 80.9537C207.375 79.6814 207.758 78.2954 207.862 76.875L209.09 59.7621L196.423 61.9342L186.212 58.0772L184.953 75.2002C184.85 76.6213 185.027 78.049 185.476 79.4014C185.924 80.7539 186.635 82.0046 187.567 83.0821C188.5 84.1596 189.635 85.0428 190.909 85.681C192.183 86.3193 193.57 86.7001 194.992 86.8017V86.8017Z" fill="white"/>
<path d="M197.062 87.4513C196.778 87.4513 196.494 87.4513 196.21 87.4513L194.951 87.3599C191.943 87.1367 189.147 85.7283 187.177 83.4444C185.207 81.1605 184.225 78.1879 184.446 75.1799L185.745 58.0467C185.751 57.965 185.776 57.8857 185.818 57.8153C185.859 57.7448 185.917 57.685 185.986 57.6407C186.055 57.5964 186.133 57.5687 186.215 57.5599C186.296 57.5511 186.379 57.5614 186.455 57.59L196.534 61.3962L209.07 59.2444C209.147 59.2323 209.227 59.2375 209.302 59.2599C209.377 59.2822 209.446 59.321 209.505 59.3735C209.563 59.426 209.609 59.4909 209.639 59.5634C209.669 59.6359 209.683 59.7142 209.679 59.7925L208.379 76.875C208.172 79.7356 206.89 82.4117 204.79 84.366C202.691 86.3202 199.93 87.408 197.062 87.4107V87.4513ZM195.032 86.284L196.291 86.3754C199.015 86.5796 201.709 85.6934 203.78 83.9118C205.851 82.1302 207.129 79.5991 207.334 76.875L208.542 60.4218L196.524 62.4518C196.434 62.4713 196.341 62.4713 196.25 62.4518L186.699 58.8486L185.491 75.2713C185.296 78.0001 186.19 80.6951 187.979 82.7653C189.767 84.8355 192.304 86.1119 195.032 86.3145V86.284Z" fill="#231F20"/>
<path d="M197.164 78.296C196.257 78.2957 195.353 78.2073 194.464 78.0321C194.397 78.02 194.332 77.9945 194.275 77.957C194.218 77.9196 194.169 77.8709 194.131 77.8141C194.093 77.7572 194.067 77.6933 194.055 77.6261C194.042 77.5589 194.043 77.4898 194.058 77.4231C194.07 77.3556 194.096 77.2911 194.133 77.2335C194.17 77.1759 194.219 77.1263 194.275 77.0875C194.332 77.0488 194.396 77.0217 194.463 77.0079C194.53 76.9941 194.599 76.9937 194.667 77.0069C195.671 77.1923 196.692 77.2672 197.712 77.2303C198.037 76.7837 197.458 73.3225 196.372 69.7192C196.352 69.6526 196.345 69.5827 196.352 69.5134C196.359 69.4442 196.38 69.3771 196.413 69.3158C196.446 69.2545 196.491 69.2004 196.545 69.1564C196.599 69.1124 196.661 69.0795 196.727 69.0595C196.794 69.0395 196.864 69.0328 196.933 69.0399C197.002 69.0469 197.069 69.0675 197.131 69.1005C197.192 69.1335 197.246 69.1782 197.29 69.2321C197.334 69.2861 197.367 69.3481 197.387 69.4148C197.884 71.0591 199.417 76.5198 198.504 77.8697C198.424 77.9893 198.317 78.0884 198.192 78.1589C198.067 78.2295 197.926 78.2695 197.783 78.2757L197.164 78.296Z" fill="#231F20"/>
<path d="M202.314 67.813C202.389 66.8011 202.113 65.9562 201.7 65.9258C201.286 65.8954 200.89 66.6911 200.816 67.703C200.742 68.7149 201.017 69.5598 201.431 69.5902C201.844 69.6206 202.24 68.8249 202.314 67.813Z" fill="#231F20"/>
<path d="M192.723 66.6469C192.798 65.635 192.523 64.7901 192.109 64.7597C191.695 64.7293 191.3 65.525 191.225 66.5369C191.151 67.5488 191.426 68.3937 191.84 68.4241C192.254 68.4545 192.649 67.6588 192.723 66.6469Z" fill="#231F20"/>
<path d="M199.823 83.8684C199.732 83.8686 199.642 83.8442 199.563 83.7978C199.485 83.7513 199.42 83.6845 199.376 83.6045C196.879 79.3009 189.805 80.5595 189.734 80.5595C189.603 80.5757 189.472 80.5416 189.365 80.4641C189.259 80.3866 189.186 80.2716 189.162 80.1424C189.137 80.0132 189.163 79.8794 189.233 79.7684C189.304 79.6573 189.414 79.5773 189.541 79.5445C189.866 79.4836 197.417 78.1742 200.28 83.1071C200.35 83.2283 200.369 83.3722 200.332 83.5073C200.296 83.6425 200.208 83.7577 200.087 83.8278C200.004 83.8656 199.913 83.8797 199.823 83.8684Z" fill="#231F20"/>
<path d="M242.412 121.535C242.412 121.535 244.97 110.015 235.368 107.447C225.766 104.879 196.798 106.28 196.798 106.28C196.798 106.28 181.807 99.6516 179.655 101.834C177.503 104.016 175.179 108.939 175.595 111.487C176.011 114.034 179.858 116.186 179.858 114.907C179.858 113.628 179.645 111.487 179.645 111.487C179.645 111.487 185.41 115.973 190.739 114.268C190.739 114.268 228.507 128.995 235.551 127.706C242.595 126.417 242.412 121.535 242.412 121.535Z" fill="white"/>
<path d="M234.587 128.305C225.685 128.305 193.723 115.973 190.749 114.826C186.516 116.074 182.172 113.811 180.294 112.552C180.355 113.273 180.416 114.207 180.416 114.907C180.422 115.022 180.404 115.137 180.364 115.245C180.325 115.353 180.264 115.452 180.185 115.536C180.107 115.62 180.012 115.688 179.907 115.735C179.802 115.782 179.689 115.808 179.574 115.81C178.214 115.912 175.514 113.78 175.108 111.568C174.651 108.827 177.026 103.803 179.3 101.418C181.573 99.0324 194.048 104.463 196.849 105.691C199.194 105.579 226.152 104.392 235.5 106.878C245.112 109.446 243.113 120.611 242.93 121.525C242.93 122.195 242.585 126.914 235.673 128.173C235.316 128.252 234.952 128.296 234.587 128.305V128.305ZM190.82 113.74C190.884 113.729 190.949 113.729 191.013 113.74C191.388 113.882 228.73 128.396 235.541 127.158C242.017 125.981 241.946 121.687 241.935 121.505C241.925 121.322 241.935 121.413 241.935 121.373C242.307 119.423 242.331 117.423 242.006 115.465C241.296 111.405 239.032 108.908 235.277 107.904C225.858 105.396 197.103 106.736 196.819 106.746C196.739 106.766 196.655 106.766 196.575 106.746C190.485 104.057 181.35 100.87 180.091 102.199C178.061 104.3 175.788 109.061 176.184 111.395C176.5 112.571 177.251 113.583 178.285 114.227C178.617 114.477 178.997 114.657 179.401 114.755C179.401 113.496 179.198 111.558 179.198 111.537C179.187 111.436 179.207 111.334 179.254 111.244C179.301 111.153 179.373 111.079 179.462 111.03C179.549 110.975 179.649 110.945 179.751 110.945C179.854 110.945 179.954 110.975 180.041 111.03C180.041 111.03 185.654 115.323 190.658 113.73C190.712 113.722 190.767 113.725 190.82 113.74Z" fill="#231F20"/>
<path d="M193.865 108.188V111.324L201.498 113.009C201.498 113.009 206.816 107.548 208.166 106.675L207.618 103.793L193.865 108.188Z" fill="#231F20"/>
<path d="M201.538 113.516H201.427L193.794 111.832C193.68 111.808 193.578 111.745 193.506 111.654C193.434 111.564 193.396 111.45 193.398 111.334V108.198C193.398 108.091 193.432 107.987 193.493 107.9C193.555 107.812 193.642 107.746 193.743 107.711L207.507 103.326C207.572 103.296 207.643 103.28 207.715 103.28C207.786 103.28 207.857 103.296 207.923 103.326C208.043 103.406 208.127 103.53 208.156 103.671L208.704 106.554C208.721 106.652 208.709 106.754 208.669 106.845C208.63 106.937 208.564 107.016 208.481 107.071C206.181 109.043 203.985 111.133 201.904 113.334C201.858 113.387 201.803 113.431 201.74 113.463C201.677 113.494 201.608 113.512 201.538 113.516V113.516ZM194.433 110.918L201.406 112.461C202.33 111.517 206.167 107.619 207.679 106.452L207.304 104.422L194.433 108.482V110.918Z" fill="#231F20"/>
<path d="M193.865 108.188C193.865 108.188 196.758 103.509 200.056 102.209L207.618 103.793C207.618 103.793 202.716 107.021 201.092 109.822L193.865 108.188Z" fill="white"/>
<path d="M201.132 110.37H201.021L193.784 108.736C193.703 108.719 193.627 108.682 193.563 108.629C193.5 108.576 193.45 108.508 193.418 108.431C193.381 108.357 193.361 108.276 193.361 108.193C193.361 108.11 193.381 108.028 193.418 107.954C193.54 107.751 196.463 103.113 199.874 101.763C199.97 101.737 200.072 101.737 200.168 101.763L207.771 103.265C207.872 103.286 207.965 103.337 208.037 103.411C208.11 103.485 208.158 103.579 208.177 103.681C208.196 103.782 208.184 103.887 208.142 103.981C208.1 104.076 208.031 104.155 207.943 104.209C207.943 104.209 203.122 107.396 201.589 110.055C201.552 110.146 201.489 110.225 201.408 110.281C201.326 110.336 201.231 110.368 201.132 110.37ZM194.758 107.873L200.848 109.254C202.386 107.252 204.232 105.507 206.319 104.087L200.107 102.788C197.793 103.762 195.641 106.584 194.758 107.843V107.873Z" fill="#231F20"/>
<path d="M195.895 110.949C195.232 111.803 194.747 112.784 194.472 113.83C194.196 114.876 194.135 115.968 194.291 117.039L199.052 118.236C198.88 116.05 199.357 113.861 200.422 111.943L195.895 110.949Z" fill="#231F20"/>
<path d="M199.021 118.734H198.94L194.139 117.475C194.036 117.45 193.944 117.394 193.875 117.314C193.805 117.233 193.763 117.134 193.753 117.028C193.587 115.889 193.657 114.727 193.957 113.615C194.257 112.503 194.782 111.464 195.499 110.563C195.556 110.498 195.629 110.449 195.711 110.422C195.794 110.395 195.882 110.391 195.966 110.411L200.503 111.426C200.583 111.442 200.658 111.479 200.72 111.532C200.782 111.586 200.829 111.654 200.858 111.73C200.896 111.802 200.915 111.882 200.915 111.964C200.915 112.045 200.896 112.125 200.858 112.197C199.85 114.016 199.402 116.092 199.569 118.165C199.575 118.246 199.562 118.327 199.532 118.403C199.502 118.478 199.456 118.546 199.397 118.602C199.294 118.693 199.159 118.74 199.021 118.734V118.734ZM194.738 116.622L198.483 117.577C198.435 115.746 198.822 113.931 199.61 112.278L196.057 111.507C195.049 113.012 194.583 114.817 194.738 116.622V116.622Z" fill="#231F20"/>
<path d="M200.493 106.523C200.37 106.524 200.251 106.481 200.158 106.401C200.083 106.334 200.029 106.247 200.002 106.15C199.975 106.052 199.976 105.95 200.006 105.853L200.655 103.823C200.701 103.7 200.792 103.599 200.91 103.542C201.028 103.485 201.164 103.475 201.289 103.516C201.414 103.557 201.518 103.644 201.58 103.76C201.641 103.876 201.656 104.012 201.62 104.138L201.346 104.99L203.376 103.975C203.435 103.946 203.499 103.929 203.565 103.925C203.631 103.921 203.697 103.93 203.759 103.952C203.822 103.974 203.879 104.007 203.928 104.052C203.977 104.096 204.017 104.149 204.045 104.209C204.075 104.269 204.092 104.334 204.096 104.401C204.101 104.467 204.092 104.534 204.07 104.597C204.048 104.661 204.014 104.719 203.97 104.769C203.926 104.819 203.872 104.86 203.812 104.889L200.767 106.401C200.689 106.467 200.594 106.509 200.493 106.523V106.523Z" fill="#D1D3D4"/>
<path d="M173.474 136.76C173.345 136.758 173.222 136.71 173.127 136.624C173.032 136.538 172.971 136.421 172.956 136.293C172.621 133.248 169.678 107.051 169.678 106.066C169.672 105.996 169.681 105.926 169.704 105.86C169.728 105.794 169.766 105.734 169.815 105.684C169.864 105.633 169.924 105.595 169.989 105.57C170.055 105.545 170.125 105.534 170.195 105.539C170.334 105.541 170.467 105.598 170.566 105.696C170.664 105.794 170.72 105.927 170.723 106.066C170.723 106.889 173.088 128.082 173.991 136.181C174.006 136.318 173.966 136.456 173.881 136.564C173.795 136.672 173.671 136.742 173.535 136.76H173.474Z" fill="#231F20"/>
<path d="M269.239 42.5782C251.03 42.5782 236.272 53.6315 236.272 67.2833C236.272 73.3124 239.154 78.834 243.945 83.1173L236.495 88.984L248.289 86.3754C254.615 90.1311 261.852 92.073 269.208 91.9884C287.418 91.9884 302.176 80.9249 302.176 67.2833C302.176 53.6417 287.448 42.5782 269.239 42.5782Z" fill="white"/>
<path d="M269.239 92.4958C261.86 92.5662 254.599 90.6371 248.228 86.9133L236.637 89.4813C236.525 89.5066 236.407 89.493 236.304 89.4428C236.2 89.3925 236.117 89.3086 236.067 89.2048C236.018 89.101 236.005 88.9834 236.031 88.8714C236.057 88.7593 236.121 88.6594 236.211 88.5881L243.164 83.0969C238.383 78.6309 235.764 73.0282 235.764 67.2833C235.764 53.3778 250.776 42.0706 269.259 42.0706C287.742 42.0706 302.754 53.3778 302.754 67.2833C302.754 81.1888 287.692 92.4958 269.239 92.4958ZM248.32 85.8679C248.413 85.8659 248.504 85.8906 248.584 85.9389C254.835 89.6352 261.977 91.5516 269.239 91.4808C287.133 91.4808 301.719 80.6204 301.719 67.2833C301.719 53.9462 287.154 43.0856 269.239 43.0856C251.324 43.0856 236.759 53.936 236.759 67.2833C236.759 72.9165 239.428 78.4482 244.26 82.7417C244.315 82.7918 244.359 82.8529 244.388 82.9212C244.418 82.9894 244.433 83.0631 244.432 83.1375C244.433 83.2125 244.415 83.2864 244.382 83.3534C244.348 83.4204 244.3 83.4786 244.239 83.5233L238.576 88.04L248.208 85.9085L248.32 85.8679Z" fill="#D1D3D4"/>
<path d="M267.168 73.2007C267.083 73.202 266.999 73.181 266.925 73.1398C266.845 73.0952 266.779 73.0304 266.733 72.9519C266.686 72.8735 266.662 72.7843 266.661 72.6932V52.7789C266.661 52.6443 266.714 52.5152 266.809 52.42C266.905 52.3249 267.034 52.2714 267.168 52.2714C267.302 52.274 267.43 52.3283 267.524 52.4229C267.619 52.5175 267.673 52.6451 267.676 52.7789V71.8L283.794 61.315C283.907 61.241 284.045 61.2149 284.177 61.2425C284.309 61.2701 284.425 61.3492 284.499 61.4622C284.573 61.5753 284.599 61.7131 284.572 61.8454C284.544 61.9777 284.465 62.0936 284.352 62.1676L267.442 73.1195C267.36 73.1708 267.265 73.1988 267.168 73.2007V73.2007Z" fill="#D1D3D4"/>
</svg>
